<svg width="646" height="148" viewBox="0 0 646 148" fill="none" xmlns="http://www.w3.org/2000/svg">
<path d="M84.2414 133.586C120.578 133.586 150.035 104.13 150.035 67.7931C150.035 31.4566 120.578 2 84.2414 2C47.9049 2 18.4483 31.4566 18.4483 67.7931C18.4483 104.13 47.9049 133.586 84.2414 133.586Z" fill="#FCC700"/>
<mask id="path-2-outside-1_214_136" maskUnits="userSpaceOnUse" x="-1" y="0.779663" width="164" height="147" fill="black">
<rect fill="white" x="-1" y="0.779663" width="164" height="147"/>
<path d="M42.2755 3.0059C40.7014 3.40703 39.8641 3.94187 39.0269 5.11184C38.3571 6.04781 38.2566 6.71636 38.1561 9.75828C37.9217 16.0092 38.9599 23.9316 40.8019 30.2828C41.1703 31.5531 41.5387 32.8567 41.6392 33.1576C41.7731 33.6256 41.4047 33.7593 39.5292 33.9599C30.3193 34.8958 18.4971 39.3417 9.78951 45.1915C3.42628 49.4703 1.5508 51.6765 2.08665 54.3841C2.55552 56.9915 10.7942 66.4181 16.99 71.4322C26.3674 79.0537 38.2231 84.1681 51.0166 86.1403C54.868 86.7086 65.719 86.9092 67.8959 86.4412L69.068 86.1738L67.0586 88.3131C62.8053 92.8927 59.0208 99.3442 56.9779 105.629C56.0401 108.437 55.7722 109.874 55.6048 112.916L55.4038 116.693L53.4279 117.763C51.0835 119 49.6769 120.504 48.5382 122.978C47.0312 126.32 48.0024 130.398 50.8156 132.404C53.1265 134.042 57.3463 134.543 60.327 133.541L61.901 133.006L64.1449 135.145C69.5704 140.36 76.5699 143.602 85.6794 145.14C89.3299 145.775 90.703 145.842 96.8653 145.675C100.918 145.575 105.037 145.274 106.578 145.006C119.873 142.499 133.638 136.115 142.614 128.293C151.522 120.537 157.249 112.08 159.727 103.122C160.799 99.1771 160.799 91.5222 159.727 87.8117C157.517 80.1902 152.091 73.7721 144.523 69.7274L142.513 68.6577L144.154 67.0198C145.929 65.2147 148.474 63.7104 150.316 63.3762C151.455 63.1756 151.556 63.209 152.192 64.4124C154.402 68.6911 161 67.0866 161 62.2396C161 58.0612 156.311 56.0221 149.781 57.3592C145.963 58.128 143.25 59.532 140.336 62.3065L137.858 64.6464L138.092 63.1756C138.394 61.2034 139.131 59.064 140.236 56.8578C141.173 55.0193 143.417 52.1779 143.92 52.1779C144.054 52.1779 144.69 52.6459 145.293 53.2142C146.666 54.4844 147.57 54.8521 149.312 54.8521C151.02 54.8521 152.56 54.1836 153.699 52.9802C157.249 49.1694 154.536 43.1525 149.245 43.1525C148.307 43.1525 146.9 43.6204 144.69 44.6901C137.623 48.0663 132.734 55.2198 131.997 63.209L131.763 65.4487L130.389 65.1478C129.653 64.9807 126.036 64.7801 122.385 64.6464C115.989 64.4458 115.788 64.4458 115.654 63.7439C113.845 54.0499 112.874 50.7071 110.262 44.7904C101.32 24.3996 83.3351 9.52428 61.7336 4.54357C55.9397 3.23989 44.7538 2.33735 42.2755 3.0059ZM52.4901 13.2347C64.1784 14.0704 77.6082 20.2545 87.22 29.2466C95.3247 36.8681 101.42 47.1303 104.099 57.6935C104.468 59.1643 104.87 60.6685 104.97 61.0362C105.071 61.4039 104.267 60.5682 103.162 59.1977C100.75 56.2227 94.6549 50.2725 91.8417 48.1332C81.8615 40.5785 71.1779 35.9655 59.5232 34.1604C57.0449 33.7927 54.3991 33.425 53.6958 33.3916C52.4232 33.2913 52.3562 33.2244 51.7533 31.4528C49.7774 25.7367 48.8062 21.1571 48.2703 15.3073L48.0694 12.6999L48.8397 12.867C49.275 12.9673 50.9161 13.101 52.4901 13.2347ZM59.3557 44.289C69.068 46.2278 76.6704 49.5371 84.5742 55.2867C87.4209 57.3592 95.3582 64.8804 95.3582 65.5155C95.3582 66.0169 89.6313 69.46 85.9808 71.1648C72.3836 77.516 56.2411 78.4186 41.8736 73.6384C34.2712 71.0979 28.3768 67.7552 21.7122 62.2396C17.9277 59.1309 13.6744 54.5847 14.1768 54.2504C14.3777 54.1167 15.1815 53.5484 16.0188 52.9467C18.3966 51.3088 25.1617 48.0329 28.8792 46.7292C32.7976 45.3921 35.7448 44.6567 39.9311 43.9881C43.9835 43.353 55.6048 43.5201 59.3557 44.289ZM129.351 73.0702C133.404 73.6384 136.083 74.4741 140.068 76.4129C150.953 81.6945 155.273 92.0236 151.355 103.456C150.45 106.097 150.417 106.163 148.843 106.732C146.03 107.768 143.049 108.102 139.968 107.668C137.456 107.3 137.121 107.3 136.552 107.835C135.581 108.737 135.681 110.208 136.786 110.91C137.557 111.412 138.461 111.512 142.48 111.512C145.125 111.512 147.235 111.612 147.202 111.746C146.9 112.515 142.48 117.696 140.47 119.601C137.021 122.844 135.715 123.813 134.944 123.579C133.739 123.178 128.715 119.969 125.969 117.83C119.438 112.782 114.046 105.194 111.936 98.2411C109.994 91.7896 110.027 82.9313 112.003 75.1761L112.539 72.9364L114.917 72.7693C116.223 72.6356 117.83 72.5019 118.467 72.4685C120.443 72.2679 125.835 72.6022 129.351 73.0702ZM99.2766 77.3155C98.3054 81.3602 98.1715 91.5222 99.0422 96.1352C100.181 102.186 103.262 109.673 106.712 114.888C109.893 119.668 115.788 125.451 121.481 129.362L123.892 131.034L121.347 132.204C119.94 132.839 117.295 133.875 115.419 134.477L112.037 135.58L109.491 134.243C98.004 128.259 89.6983 119.468 86.4832 109.874C84.0049 102.453 83.9379 93.227 86.3492 84.469C86.6841 83.1987 87.0191 82.129 87.0525 82.0956C88.4926 81.0928 98.138 76.6469 99.0087 76.6135C99.3101 76.5801 99.3771 76.8141 99.2766 77.3155ZM72.4841 98.308C72.685 113.484 79.3162 126.788 91.6743 136.817L93.1813 138.053L91.1719 137.886C78.6129 136.75 70.0728 132.337 66.3888 125.05C64.2454 120.805 63.5421 118.197 63.5421 114.554C63.5421 108.303 66.1543 101.885 71.1779 95.7006C71.8143 94.9318 72.3501 94.2967 72.3836 94.2967C72.3836 94.2967 72.4506 96.1018 72.4841 98.308Z"/>
<path d="M128.952 93.4324C122.77 92.8833 121.371 84.1666 127.032 81.4556C127.748 81.1124 128.366 80.8035 128.399 80.8035C128.464 80.8035 128.203 81.3183 127.846 81.9017C127.065 83.2401 127.032 83.9607 127.683 85.2305C128.334 86.6032 129.83 87.1179 131.262 86.5002C132.531 85.9168 133.052 85.0589 133.052 83.4803L133.084 82.3478L134.028 83.5146C134.613 84.2353 135.069 85.2648 135.199 86.2257C135.785 90.3438 132.824 93.7755 128.952 93.4324Z"/>
<path d="M99.2766 77.3155C98.3054 81.3602 98.1715 91.5222 99.0422 96.1352C100.181 102.186 103.262 109.673 106.712 114.888C109.893 119.668 115.788 125.451 121.481 129.362L123.892 131.034L121.347 132.204C119.94 132.839 117.295 133.875 115.419 134.477L112.037 135.58L109.491 134.243C98.004 128.259 89.6983 119.468 86.4832 109.874C84.0049 102.453 83.9379 93.227 86.3492 84.469C86.6841 83.1987 87.0191 82.129 87.0525 82.0956C88.4926 81.0928 98.138 76.6469 99.0087 76.6135C99.3101 76.5801 99.3771 76.8141 99.2766 77.3155Z"/>
<path d="M72.4841 98.308C72.685 113.484 79.3162 126.788 91.6743 136.817L93.1813 138.053L91.1719 137.886C78.6129 136.75 70.0728 132.337 66.3888 125.05C64.2454 120.805 63.5421 118.197 63.5421 114.554C63.5421 108.303 66.1543 101.885 71.1779 95.7006C71.8143 94.9318 72.3501 94.2967 72.3836 94.2967C72.3836 94.2967 72.4506 96.1018 72.4841 98.308Z"/>
<path d="M59.3557 44.289C69.068 46.2278 76.6704 49.5371 84.5742 55.2867C87.4209 57.3592 95.3582 64.8804 95.3582 65.5155C95.3582 66.0169 89.6313 69.46 85.9808 71.1648C72.3836 77.516 56.2411 78.4186 41.8736 73.6384C34.2712 71.0979 28.3768 67.7552 21.7122 62.2396C17.9277 59.1309 13.6744 54.5847 14.1768 54.2504C14.3777 54.1167 15.1815 53.5484 16.0188 52.9467C18.3966 51.3088 25.1617 48.0329 28.8792 46.7292C32.7976 45.3921 35.7448 44.6567 39.9311 43.9881C43.9835 43.353 55.6048 43.5201 59.3557 44.289Z"/>
<path d="M52.4901 13.2347C64.1784 14.0704 77.6082 20.2545 87.22 29.2466C95.3247 36.8681 101.42 47.1303 104.099 57.6935C104.468 59.1643 104.87 60.6685 104.97 61.0362C105.071 61.4039 104.267 60.5682 103.162 59.1977C100.75 56.2227 94.6549 50.2725 91.8417 48.1332C81.8615 40.5785 71.1779 35.9655 59.5232 34.1604C57.0449 33.7927 54.3991 33.425 53.6958 33.3916C52.4232 33.2913 52.3562 33.2244 51.7533 31.4528C49.7774 25.7367 48.8062 21.1571 48.2703 15.3073L48.0694 12.6999L48.8397 12.867C49.275 12.9673 50.9161 13.101 52.4901 13.2347Z"/>
<path fill-rule="evenodd" clip-rule="evenodd" d="M129.351 73.0702C133.404 73.6384 136.083 74.4741 140.068 76.4129C150.953 81.6945 155.273 92.0236 151.355 103.456C150.45 106.097 150.417 106.163 148.843 106.732C146.03 107.768 143.049 108.102 139.968 107.668C137.456 107.3 137.121 107.3 136.552 107.835C135.581 108.737 135.681 110.208 136.786 110.91C137.557 111.412 138.461 111.512 142.48 111.512C145.125 111.512 147.235 111.612 147.202 111.746C146.9 112.515 142.48 117.696 140.47 119.601C137.021 122.844 135.715 123.813 134.944 123.579C133.739 123.178 128.715 119.969 125.969 117.83C119.438 112.782 114.046 105.194 111.936 98.2411C109.994 91.7896 110.027 82.9313 112.003 75.1761L112.539 72.9364L114.917 72.7693C116.223 72.6356 117.83 72.5019 118.467 72.4685C120.443 72.2679 125.835 72.6022 129.351 73.0702ZM128.952 93.4324C122.77 92.8833 121.371 84.1666 127.032 81.4556C127.748 81.1124 128.366 80.8035 128.399 80.8035C128.464 80.8035 128.203 81.3183 127.846 81.9017C127.065 83.2401 127.032 83.9607 127.683 85.2305C128.334 86.6032 129.83 87.1179 131.262 86.5002C132.531 85.9168 133.052 85.0589 133.052 83.4803L133.084 82.3478L134.028 83.5146C134.613 84.2353 135.069 85.2648 135.199 86.2257C135.785 90.3438 132.824 93.7755 128.952 93.4324Z"/>
</mask>
<path d="M42.2755 3.0059C40.7014 3.40703 39.8641 3.94187 39.0269 5.11184C38.3571 6.04781 38.2566 6.71636 38.1561 9.75828C37.9217 16.0092 38.9599 23.9316 40.8019 30.2828C41.1703 31.5531 41.5387 32.8567 41.6392 33.1576C41.7731 33.6256 41.4047 33.7593 39.5292 33.9599C30.3193 34.8958 18.4971 39.3417 9.78951 45.1915C3.42628 49.4703 1.5508 51.6765 2.08665 54.3841C2.55552 56.9915 10.7942 66.4181 16.99 71.4322C26.3674 79.0537 38.2231 84.1681 51.0166 86.1403C54.868 86.7086 65.719 86.9092 67.8959 86.4412L69.068 86.1738L67.0586 88.3131C62.8053 92.8927 59.0208 99.3442 56.9779 105.629C56.0401 108.437 55.7722 109.874 55.6048 112.916L55.4038 116.693L53.4279 117.763C51.0835 119 49.6769 120.504 48.5382 122.978C47.0312 126.32 48.0024 130.398 50.8156 132.404C53.1265 134.042 57.3463 134.543 60.327 133.541L61.901 133.006L64.1449 135.145C69.5704 140.36 76.5699 143.602 85.6794 145.14C89.3299 145.775 90.703 145.842 96.8653 145.675C100.918 145.575 105.037 145.274 106.578 145.006C119.873 142.499 133.638 136.115 142.614 128.293C151.522 120.537 157.249 112.08 159.727 103.122C160.799 99.1771 160.799 91.5222 159.727 87.8117C157.517 80.1902 152.091 73.7721 144.523 69.7274L142.513 68.6577L144.154 67.0198C145.929 65.2147 148.474 63.7104 150.316 63.3762C151.455 63.1756 151.556 63.209 152.192 64.4124C154.402 68.6911 161 67.0866 161 62.2396C161 58.0612 156.311 56.0221 149.781 57.3592C145.963 58.128 143.25 59.532 140.336 62.3065L137.858 64.6464L138.092 63.1756C138.394 61.2034 139.131 59.064 140.236 56.8578C141.173 55.0193 143.417 52.1779 143.92 52.1779C144.054 52.1779 144.69 52.6459 145.293 53.2142C146.666 54.4844 147.57 54.8521 149.312 54.8521C151.02 54.8521 152.56 54.1836 153.699 52.9802C157.249 49.1694 154.536 43.1525 149.245 43.1525C148.307 43.1525 146.9 43.6204 144.69 44.6901C137.623 48.0663 132.734 55.2198 131.997 63.209L131.763 65.4487L130.389 65.1478C129.653 64.9807 126.036 64.7801 122.385 64.6464C115.989 64.4458 115.788 64.4458 115.654 63.7439C113.845 54.0499 112.874 50.7071 110.262 44.7904C101.32 24.3996 83.3351 9.52428 61.7336 4.54357C55.9397 3.23989 44.7538 2.33735 42.2755 3.0059ZM52.4901 13.2347C64.1784 14.0704 77.6082 20.2545 87.22 29.2466C95.3247 36.8681 101.42 47.1303 104.099 57.6935C104.468 59.1643 104.87 60.6685 104.97 61.0362C105.071 61.4039 104.267 60.5682 103.162 59.1977C100.75 56.2227 94.6549 50.2725 91.8417 48.1332C81.8615 40.5785 71.1779 35.9655 59.5232 34.1604C57.0449 33.7927 54.3991 33.425 53.6958 33.3916C52.4232 33.2913 52.3562 33.2244 51.7533 31.4528C49.7774 25.7367 48.8062 21.1571 48.2703 15.3073L48.0694 12.6999L48.8397 12.867C49.275 12.9673 50.9161 13.101 52.4901 13.2347ZM59.3557 44.289C69.068 46.2278 76.6704 49.5371 84.5742 55.2867C87.4209 57.3592 95.3582 64.8804 95.3582 65.5155C95.3582 66.0169 89.6313 69.46 85.9808 71.1648C72.3836 77.516 56.2411 78.4186 41.8736 73.6384C34.2712 71.0979 28.3768 67.7552 21.7122 62.2396C17.9277 59.1309 13.6744 54.5847 14.1768 54.2504C14.3777 54.1167 15.1815 53.5484 16.0188 52.9467C18.3966 51.3088 25.1617 48.0329 28.8792 46.7292C32.7976 45.3921 35.7448 44.6567 39.9311 43.9881C43.9835 43.353 55.6048 43.5201 59.3557 44.289ZM129.351 73.0702C133.404 73.6384 136.083 74.4741 140.068 76.4129C150.953 81.6945 155.273 92.0236 151.355 103.456C150.45 106.097 150.417 106.163 148.843 106.732C146.03 107.768 143.049 108.102 139.968 107.668C137.456 107.3 137.121 107.3 136.552 107.835C135.581 108.737 135.681 110.208 136.786 110.91C137.557 111.412 138.461 111.512 142.48 111.512C145.125 111.512 147.235 111.612 147.202 111.746C146.9 112.515 142.48 117.696 140.47 119.601C137.021 122.844 135.715 123.813 134.944 123.579C133.739 123.178 128.715 119.969 125.969 117.83C119.438 112.782 114.046 105.194 111.936 98.2411C109.994 91.7896 110.027 82.9313 112.003 75.1761L112.539 72.9364L114.917 72.7693C116.223 72.6356 117.83 72.5019 118.467 72.4685C120.443 72.2679 125.835 72.6022 129.351 73.0702ZM99.2766 77.3155C98.3054 81.3602 98.1715 91.5222 99.0422 96.1352C100.181 102.186 103.262 109.673 106.712 114.888C109.893 119.668 115.788 125.451 121.481 129.362L123.892 131.034L121.347 132.204C119.94 132.839 117.295 133.875 115.419 134.477L112.037 135.58L109.491 134.243C98.004 128.259 89.6983 119.468 86.4832 109.874C84.0049 102.453 83.9379 93.227 86.3492 84.469C86.6841 83.1987 87.0191 82.129 87.0525 82.0956C88.4926 81.0928 98.138 76.6469 99.0087 76.6135C99.3101 76.5801 99.3771 76.8141 99.2766 77.3155ZM72.4841 98.308C72.685 113.484 79.3162 126.788 91.6743 136.817L93.1813 138.053L91.1719 137.886C78.6129 136.75 70.0728 132.337 66.3888 125.05C64.2454 120.805 63.5421 118.197 63.5421 114.554C63.5421 108.303 66.1543 101.885 71.1779 95.7006C71.8143 94.9318 72.3501 94.2967 72.3836 94.2967C72.3836 94.2967 72.4506 96.1018 72.4841 98.308Z" fill="black"/>
<path d="M128.952 93.4324C122.77 92.8833 121.371 84.1666 127.032 81.4556C127.748 81.1124 128.366 80.8035 128.399 80.8035C128.464 80.8035 128.203 81.3183 127.846 81.9017C127.065 83.2401 127.032 83.9607 127.683 85.2305C128.334 86.6032 129.83 87.1179 131.262 86.5002C132.531 85.9168 133.052 85.0589 133.052 83.4803L133.084 82.3478L134.028 83.5146C134.613 84.2353 135.069 85.2648 135.199 86.2257C135.785 90.3438 132.824 93.7755 128.952 93.4324Z" fill="black"/>
<path d="M99.2766 77.3155C98.3054 81.3602 98.1715 91.5222 99.0422 96.1352C100.181 102.186 103.262 109.673 106.712 114.888C109.893 119.668 115.788 125.451 121.481 129.362L123.892 131.034L121.347 132.204C119.94 132.839 117.295 133.875 115.419 134.477L112.037 135.58L109.491 134.243C98.004 128.259 89.6983 119.468 86.4832 109.874C84.0049 102.453 83.9379 93.227 86.3492 84.469C86.6841 83.1987 87.0191 82.129 87.0525 82.0956C88.4926 81.0928 98.138 76.6469 99.0087 76.6135C99.3101 76.5801 99.3771 76.8141 99.2766 77.3155Z" fill="#FCC700"/>
<path d="M72.4841 98.308C72.685 113.484 79.3162 126.788 91.6743 136.817L93.1813 138.053L91.1719 137.886C78.6129 136.75 70.0728 132.337 66.3888 125.05C64.2454 120.805 63.5421 118.197 63.5421 114.554C63.5421 108.303 66.1543 101.885 71.1779 95.7006C71.8143 94.9318 72.3501 94.2967 72.3836 94.2967C72.3836 94.2967 72.4506 96.1018 72.4841 98.308Z" fill="#FCC700"/>
<path d="M59.3557 44.289C69.068 46.2278 76.6704 49.5371 84.5742 55.2867C87.4209 57.3592 95.3582 64.8804 95.3582 65.5155C95.3582 66.0169 89.6313 69.46 85.9808 71.1648C72.3836 77.516 56.2411 78.4186 41.8736 73.6384C34.2712 71.0979 28.3768 67.7552 21.7122 62.2396C17.9277 59.1309 13.6744 54.5847 14.1768 54.2504C14.3777 54.1167 15.1815 53.5484 16.0188 52.9467C18.3966 51.3088 25.1617 48.0329 28.8792 46.7292C32.7976 45.3921 35.7448 44.6567 39.9311 43.9881C43.9835 43.353 55.6048 43.5201 59.3557 44.289Z" fill="white"/>
<path d="M52.4901 13.2347C64.1784 14.0704 77.6082 20.2545 87.22 29.2466C95.3247 36.8681 101.42 47.1303 104.099 57.6935C104.468 59.1643 104.87 60.6685 104.97 61.0362C105.071 61.4039 104.267 60.5682 103.162 59.1977C100.75 56.2227 94.6549 50.2725 91.8417 48.1332C81.8615 40.5785 71.1779 35.9655 59.5232 34.1604C57.0449 33.7927 54.3991 33.425 53.6958 33.3916C52.4232 33.2913 52.3562 33.2244 51.7533 31.4528C49.7774 25.7367 48.8062 21.1571 48.2703 15.3073L48.0694 12.6999L48.8397 12.867C49.275 12.9673 50.9161 13.101 52.4901 13.2347Z" fill="white"/>
<path fill-rule="evenodd" clip-rule="evenodd" d="M129.351 73.0702C133.404 73.6384 136.083 74.4741 140.068 76.4129C150.953 81.6945 155.273 92.0236 151.355 103.456C150.45 106.097 150.417 106.163 148.843 106.732C146.03 107.768 143.049 108.102 139.968 107.668C137.456 107.3 137.121 107.3 136.552 107.835C135.581 108.737 135.681 110.208 136.786 110.91C137.557 111.412 138.461 111.512 142.48 111.512C145.125 111.512 147.235 111.612 147.202 111.746C146.9 112.515 142.48 117.696 140.47 119.601C137.021 122.844 135.715 123.813 134.944 123.579C133.739 123.178 128.715 119.969 125.969 117.83C119.438 112.782 114.046 105.194 111.936 98.2411C109.994 91.7896 110.027 82.9313 112.003 75.1761L112.539 72.9364L114.917 72.7693C116.223 72.6356 117.83 72.5019 118.467 72.4685C120.443 72.2679 125.835 72.6022 129.351 73.0702ZM128.952 93.4324C122.77 92.8833 121.371 84.1666 127.032 81.4556C127.748 81.1124 128.366 80.8035 128.399 80.8035C128.464 80.8035 128.203 81.3183 127.846 81.9017C127.065 83.2401 127.032 83.9607 127.683 85.2305C128.334 86.6032 129.83 87.1179 131.262 86.5002C132.531 85.9168 133.052 85.0589 133.052 83.4803L133.084 82.3478L134.028 83.5146C134.613 84.2353 135.069 85.2648 135.199 86.2257C135.785 90.3438 132.824 93.7755 128.952 93.4324Z" fill="white"/>
<path d="M42.2755 3.0059C40.7014 3.40703 39.8641 3.94187 39.0269 5.11184C38.3571 6.04781 38.2566 6.71636 38.1561 9.75828C37.9217 16.0092 38.9599 23.9316 40.8019 30.2828C41.1703 31.5531 41.5387 32.8567 41.6392 33.1576C41.7731 33.6256 41.4047 33.7593 39.5292 33.9599C30.3193 34.8958 18.4971 39.3417 9.78951 45.1915C3.42628 49.4703 1.5508 51.6765 2.08665 54.3841C2.55552 56.9915 10.7942 66.4181 16.99 71.4322C26.3674 79.0537 38.2231 84.1681 51.0166 86.1403C54.868 86.7086 65.719 86.9092 67.8959 86.4412L69.068 86.1738L67.0586 88.3131C62.8053 92.8927 59.0208 99.3442 56.9779 105.629C56.0401 108.437 55.7722 109.874 55.6048 112.916L55.4038 116.693L53.4279 117.763C51.0835 119 49.6769 120.504 48.5382 122.978C47.0312 126.32 48.0024 130.398 50.8156 132.404C53.1265 134.042 57.3463 134.543 60.327 133.541L61.901 133.006L64.1449 135.145C69.5704 140.36 76.5699 143.602 85.6794 145.14C89.3299 145.775 90.703 145.842 96.8653 145.675C100.918 145.575 105.037 145.274 106.578 145.006C119.873 142.499 133.638 136.115 142.614 128.293C151.522 120.537 157.249 112.08 159.727 103.122C160.799 99.1771 160.799 91.5222 159.727 87.8117C157.517 80.1902 152.091 73.7721 144.523 69.7274L142.513 68.6577L144.154 67.0198C145.929 65.2147 148.474 63.7104 150.316 63.3762C151.455 63.1756 151.556 63.209 152.192 64.4124C154.402 68.6911 161 67.0866 161 62.2396C161 58.0612 156.311 56.0221 149.781 57.3592C145.963 58.128 143.25 59.532 140.336 62.3065L137.858 64.6464L138.092 63.1756C138.394 61.2034 139.131 59.064 140.236 56.8578C141.173 55.0193 143.417 52.1779 143.92 52.1779C144.054 52.1779 144.69 52.6459 145.293 53.2142C146.666 54.4844 147.57 54.8521 149.312 54.8521C151.02 54.8521 152.56 54.1836 153.699 52.9802C157.249 49.1694 154.536 43.1525 149.245 43.1525C148.307 43.1525 146.9 43.6204 144.69 44.6901C137.623 48.0663 132.734 55.2198 131.997 63.209L131.763 65.4487L130.389 65.1478C129.653 64.9807 126.036 64.7801 122.385 64.6464C115.989 64.4458 115.788 64.4458 115.654 63.7439C113.845 54.0499 112.874 50.7071 110.262 44.7904C101.32 24.3996 83.3351 9.52428 61.7336 4.54357C55.9397 3.23989 44.7538 2.33735 42.2755 3.0059ZM52.4901 13.2347C64.1784 14.0704 77.6082 20.2545 87.22 29.2466C95.3247 36.8681 101.42 47.1303 104.099 57.6935C104.468 59.1643 104.87 60.6685 104.97 61.0362C105.071 61.4039 104.267 60.5682 103.162 59.1977C100.75 56.2227 94.6549 50.2725 91.8417 48.1332C81.8615 40.5785 71.1779 35.9655 59.5232 34.1604C57.0449 33.7927 54.3991 33.425 53.6958 33.3916C52.4232 33.2913 52.3562 33.2244 51.7533 31.4528C49.7774 25.7367 48.8062 21.1571 48.2703 15.3073L48.0694 12.6999L48.8397 12.867C49.275 12.9673 50.9161 13.101 52.4901 13.2347ZM59.3557 44.289C69.068 46.2278 76.6704 49.5371 84.5742 55.2867C87.4209 57.3592 95.3582 64.8804 95.3582 65.5155C95.3582 66.0169 89.6313 69.46 85.9808 71.1648C72.3836 77.516 56.2411 78.4186 41.8736 73.6384C34.2712 71.0979 28.3768 67.7552 21.7122 62.2396C17.9277 59.1309 13.6744 54.5847 14.1768 54.2504C14.3777 54.1167 15.1815 53.5484 16.0188 52.9467C18.3966 51.3088 25.1617 48.0329 28.8792 46.7292C32.7976 45.3921 35.7448 44.6567 39.9311 43.9881C43.9835 43.353 55.6048 43.5201 59.3557 44.289ZM129.351 73.0702C133.404 73.6384 136.083 74.4741 140.068 76.4129C150.953 81.6945 155.273 92.0236 151.355 103.456C150.45 106.097 150.417 106.163 148.843 106.732C146.03 107.768 143.049 108.102 139.968 107.668C137.456 107.3 137.121 107.3 136.552 107.835C135.581 108.737 135.681 110.208 136.786 110.91C137.557 111.412 138.461 111.512 142.48 111.512C145.125 111.512 147.235 111.612 147.202 111.746C146.9 112.515 142.48 117.696 140.47 119.601C137.021 122.844 135.715 123.813 134.944 123.579C133.739 123.178 128.715 119.969 125.969 117.83C119.438 112.782 114.046 105.194 111.936 98.2411C109.994 91.7896 110.027 82.9313 112.003 75.1761L112.539 72.9364L114.917 72.7693C116.223 72.6356 117.83 72.5019 118.467 72.4685C120.443 72.2679 125.835 72.6022 129.351 73.0702ZM99.2766 77.3155C98.3054 81.3602 98.1715 91.5222 99.0422 96.1352C100.181 102.186 103.262 109.673 106.712 114.888C109.893 119.668 115.788 125.451 121.481 129.362L123.892 131.034L121.347 132.204C119.94 132.839 117.295 133.875 115.419 134.477L112.037 135.58L109.491 134.243C98.004 128.259 89.6983 119.468 86.4832 109.874C84.0049 102.453 83.9379 93.227 86.3492 84.469C86.6841 83.1987 87.0191 82.129 87.0525 82.0956C88.4926 81.0928 98.138 76.6469 99.0087 76.6135C99.3101 76.5801 99.3771 76.8141 99.2766 77.3155ZM72.4841 98.308C72.685 113.484 79.3162 126.788 91.6743 136.817L93.1813 138.053L91.1719 137.886C78.6129 136.75 70.0728 132.337 66.3888 125.05C64.2454 120.805 63.5421 118.197 63.5421 114.554C63.5421 108.303 66.1543 101.885 71.1779 95.7006C71.8143 94.9318 72.3501 94.2967 72.3836 94.2967C72.3836 94.2967 72.4506 96.1018 72.4841 98.308Z" stroke="white" stroke-width="4" mask="url(#path-2-outside-1_214_136)"/>
<path d="M128.952 93.4324C122.77 92.8833 121.371 84.1666 127.032 81.4556C127.748 81.1124 128.366 80.8035 128.399 80.8035C128.464 80.8035 128.203 81.3183 127.846 81.9017C127.065 83.2401 127.032 83.9607 127.683 85.2305C128.334 86.6032 129.83 87.1179 131.262 86.5002C132.531 85.9168 133.052 85.0589 133.052 83.4803L133.084 82.3478L134.028 83.5146C134.613 84.2353 135.069 85.2648 135.199 86.2257C135.785 90.3438 132.824 93.7755 128.952 93.4324Z" stroke="white" stroke-width="4" mask="url(#path-2-outside-1_214_136)"/>
<path d="M99.2766 77.3155C98.3054 81.3602 98.1715 91.5222 99.0422 96.1352C100.181 102.186 103.262 109.673 106.712 114.888C109.893 119.668 115.788 125.451 121.481 129.362L123.892 131.034L121.347 132.204C119.94 132.839 117.295 133.875 115.419 134.477L112.037 135.58L109.491 134.243C98.004 128.259 89.6983 119.468 86.4832 109.874C84.0049 102.453 83.9379 93.227 86.3492 84.469C86.6841 83.1987 87.0191 82.129 87.0525 82.0956C88.4926 81.0928 98.138 76.6469 99.0087 76.6135C99.3101 76.5801 99.3771 76.8141 99.2766 77.3155Z" stroke="white" stroke-width="4" mask="url(#path-2-outside-1_214_136)"/>
<path d="M72.4841 98.308C72.685 113.484 79.3162 126.788 91.6743 136.817L93.1813 138.053L91.1719 137.886C78.6129 136.75 70.0728 132.337 66.3888 125.05C64.2454 120.805 63.5421 118.197 63.5421 114.554C63.5421 108.303 66.1543 101.885 71.1779 95.7006C71.8143 94.9318 72.3501 94.2967 72.3836 94.2967C72.3836 94.2967 72.4506 96.1018 72.4841 98.308Z" stroke="white" stroke-width="4" mask="url(#path-2-outside-1_214_136)"/>
<path d="M59.3557 44.289C69.068 46.2278 76.6704 49.5371 84.5742 55.2867C87.4209 57.3592 95.3582 64.8804 95.3582 65.5155C95.3582 66.0169 89.6313 69.46 85.9808 71.1648C72.3836 77.516 56.2411 78.4186 41.8736 73.6384C34.2712 71.0979 28.3768 67.7552 21.7122 62.2396C17.9277 59.1309 13.6744 54.5847 14.1768 54.2504C14.3777 54.1167 15.1815 53.5484 16.0188 52.9467C18.3966 51.3088 25.1617 48.0329 28.8792 46.7292C32.7976 45.3921 35.7448 44.6567 39.9311 43.9881C43.9835 43.353 55.6048 43.5201 59.3557 44.289Z" stroke="white" stroke-width="4" mask="url(#path-2-outside-1_214_136)"/>
<path d="M52.4901 13.2347C64.1784 14.0704 77.6082 20.2545 87.22 29.2466C95.3247 36.8681 101.42 47.1303 104.099 57.6935C104.468 59.1643 104.87 60.6685 104.97 61.0362C105.071 61.4039 104.267 60.5682 103.162 59.1977C100.75 56.2227 94.6549 50.2725 91.8417 48.1332C81.8615 40.5785 71.1779 35.9655 59.5232 34.1604C57.0449 33.7927 54.3991 33.425 53.6958 33.3916C52.4232 33.2913 52.3562 33.2244 51.7533 31.4528C49.7774 25.7367 48.8062 21.1571 48.2703 15.3073L48.0694 12.6999L48.8397 12.867C49.275 12.9673 50.9161 13.101 52.4901 13.2347Z" stroke="white" stroke-width="4" mask="url(#path-2-outside-1_214_136)"/>
<path fill-rule="evenodd" clip-rule="evenodd" d="M129.351 73.0702C133.404 73.6384 136.083 74.4741 140.068 76.4129C150.953 81.6945 155.273 92.0236 151.355 103.456C150.45 106.097 150.417 106.163 148.843 106.732C146.03 107.768 143.049 108.102 139.968 107.668C137.456 107.3 137.121 107.3 136.552 107.835C135.581 108.737 135.681 110.208 136.786 110.91C137.557 111.412 138.461 111.512 142.48 111.512C145.125 111.512 147.235 111.612 147.202 111.746C146.9 112.515 142.48 117.696 140.47 119.601C137.021 122.844 135.715 123.813 134.944 123.579C133.739 123.178 128.715 119.969 125.969 117.83C119.438 112.782 114.046 105.194 111.936 98.2411C109.994 91.7896 110.027 82.9313 112.003 75.1761L112.539 72.9364L114.917 72.7693C116.223 72.6356 117.83 72.5019 118.467 72.4685C120.443 72.2679 125.835 72.6022 129.351 73.0702ZM128.952 93.4324C122.77 92.8833 121.371 84.1666 127.032 81.4556C127.748 81.1124 128.366 80.8035 128.399 80.8035C128.464 80.8035 128.203 81.3183 127.846 81.9017C127.065 83.2401 127.032 83.9607 127.683 85.2305C128.334 86.6032 129.83 87.1179 131.262 86.5002C132.531 85.9168 133.052 85.0589 133.052 83.4803L133.084 82.3478L134.028 83.5146C134.613 84.2353 135.069 85.2648 135.199 86.2257C135.785 90.3438 132.824 93.7755 128.952 93.4324Z" stroke="white" stroke-width="4" mask="url(#path-2-outside-1_214_136)"/>
<path d="M195.2 69.3766V27.3766H216.68C222.2 27.3766 226.32 28.3966 229.04 30.4366C231.76 32.4366 233.12 35.0766 233.12 38.3566C233.12 40.5166 232.54 42.4166 231.38 44.0566C230.26 45.6566 228.66 46.9366 226.58 47.8966C224.54 48.8166 222.1 49.2766 219.26 49.2766L220.46 46.3966C223.42 46.3966 226 46.8566 228.2 47.7766C230.4 48.6566 232.1 49.9566 233.3 51.6766C234.54 53.3566 235.16 55.4166 235.16 57.8566C235.16 61.4966 233.68 64.3366 230.72 66.3766C227.8 68.3766 223.52 69.3766 217.88 69.3766H195.2ZM206.96 60.7966H216.92C218.96 60.7966 220.5 60.4566 221.54 59.7766C222.62 59.0566 223.16 57.9766 223.16 56.5366C223.16 55.0966 222.62 54.0366 221.54 53.3566C220.5 52.6366 218.96 52.2766 216.92 52.2766H206.12V44.0566H215.12C217.12 44.0566 218.62 43.7166 219.62 43.0366C220.62 42.3566 221.12 41.3366 221.12 39.9766C221.12 38.6166 220.62 37.6166 219.62 36.9766C218.62 36.2966 217.12 35.9566 215.12 35.9566H206.96V60.7966ZM257.033 43.6366H276.533V52.5166H257.033V43.6366ZM257.873 60.1966H279.833V69.3766H246.113V27.3766H279.053V36.5566H257.873V60.1966ZM302.146 43.6366H321.646V52.5166H302.146V43.6366ZM302.986 60.1966H324.946V69.3766H291.226V27.3766H324.166V36.5566H302.986V60.1966ZM379.539 70.2166C376.219 70.2166 373.139 69.6966 370.299 68.6566C367.499 67.5766 365.059 66.0566 362.979 64.0966C360.939 62.1366 359.339 59.8366 358.179 57.1966C357.019 54.5166 356.439 51.5766 356.439 48.3766C356.439 45.1766 357.019 42.2566 358.179 39.6166C359.339 36.9366 360.939 34.6166 362.979 32.6566C365.059 30.6966 367.499 29.1966 370.299 28.1566C373.139 27.0766 376.219 26.5366 379.539 26.5366C383.419 26.5366 386.879 27.2166 389.919 28.5766C392.999 29.9366 395.559 31.8966 397.599 34.4566L390.039 41.2966C388.679 39.6966 387.179 38.4766 385.539 37.6366C383.939 36.7966 382.139 36.3766 380.139 36.3766C378.419 36.3766 376.839 36.6566 375.399 37.2166C373.959 37.7766 372.719 38.5966 371.679 39.6766C370.679 40.7166 369.879 41.9766 369.279 43.4566C368.719 44.9366 368.439 46.5766 368.439 48.3766C368.439 50.1766 368.719 51.8166 369.279 53.2966C369.879 54.7766 370.679 56.0566 371.679 57.1366C372.719 58.1766 373.959 58.9766 375.399 59.5366C376.839 60.0966 378.419 60.3766 380.139 60.3766C382.139 60.3766 383.939 59.9566 385.539 59.1166C387.179 58.2766 388.679 57.0566 390.039 55.4566L397.599 62.2966C395.559 64.8166 392.999 66.7766 389.919 68.1766C386.879 69.5366 383.419 70.2166 379.539 70.2166ZM427.997 70.2166C424.637 70.2166 421.537 69.6766 418.697 68.5966C415.857 67.5166 413.377 65.9966 411.257 64.0366C409.177 62.0366 407.557 59.7166 406.397 57.0766C405.237 54.4366 404.657 51.5366 404.657 48.3766C404.657 45.2166 405.237 42.3166 406.397 39.6766C407.557 37.0366 409.177 34.7366 411.257 32.7766C413.377 30.7766 415.857 29.2366 418.697 28.1566C421.537 27.0766 424.637 26.5366 427.997 26.5366C431.397 26.5366 434.497 27.0766 437.297 28.1566C440.137 29.2366 442.597 30.7766 444.677 32.7766C446.757 34.7366 448.377 37.0366 449.537 39.6766C450.737 42.3166 451.337 45.2166 451.337 48.3766C451.337 51.5366 450.737 54.4566 449.537 57.1366C448.377 59.7766 446.757 62.0766 444.677 64.0366C442.597 65.9966 440.137 67.5166 437.297 68.5966C434.497 69.6766 431.397 70.2166 427.997 70.2166ZM427.997 60.3766C429.597 60.3766 431.077 60.0966 432.437 59.5366C433.837 58.9766 435.037 58.1766 436.037 57.1366C437.077 56.0566 437.877 54.7766 438.437 53.2966C439.037 51.8166 439.337 50.1766 439.337 48.3766C439.337 46.5366 439.037 44.8966 438.437 43.4566C437.877 41.9766 437.077 40.7166 436.037 39.6766C435.037 38.5966 433.837 37.7766 432.437 37.2166C431.077 36.6566 429.597 36.3766 427.997 36.3766C426.397 36.3766 424.897 36.6566 423.497 37.2166C422.137 37.7766 420.937 38.5966 419.897 39.6766C418.897 40.7166 418.097 41.9766 417.497 43.4566C416.937 44.8966 416.657 46.5366 416.657 48.3766C416.657 50.1766 416.937 51.8166 417.497 53.2966C418.097 54.7766 418.897 56.0566 419.897 57.1366C420.937 58.1766 422.137 58.9766 423.497 59.5366C424.897 60.0966 426.397 60.3766 427.997 60.3766ZM462.359 69.3766V27.3766H482.219C486.859 27.3766 490.939 28.2366 494.459 29.9566C497.979 31.6766 500.719 34.0966 502.679 37.2166C504.679 40.3366 505.679 44.0566 505.679 48.3766C505.679 52.6566 504.679 56.3766 502.679 59.5366C500.719 62.6566 497.979 65.0766 494.459 66.7966C490.939 68.5166 486.859 69.3766 482.219 69.3766H462.359ZM474.239 59.8966H481.739C484.139 59.8966 486.219 59.4566 487.979 58.5766C489.779 57.6566 491.179 56.3366 492.179 54.6166C493.179 52.8566 493.679 50.7766 493.679 48.3766C493.679 45.9366 493.179 43.8566 492.179 42.1366C491.179 40.4166 489.779 39.1166 487.979 38.2366C486.219 37.3166 484.139 36.8566 481.739 36.8566H474.239V59.8966ZM527.65 43.6366H547.15V52.5166H527.65V43.6366ZM528.49 60.1966H550.45V69.3766H516.73V27.3766H549.67V36.5566H528.49V60.1966ZM561.842 69.3766V27.3766H581.042C584.882 27.3766 588.182 27.9966 590.942 29.2366C593.742 30.4766 595.902 32.2766 597.422 34.6366C598.942 36.9566 599.702 39.7166 599.702 42.9166C599.702 46.0766 598.942 48.8166 597.422 51.1366C595.902 53.4166 593.742 55.1766 590.942 56.4166C588.182 57.6166 584.882 58.2166 581.042 58.2166H568.442L573.722 53.2366V69.3766H561.842ZM587.822 69.3766L577.382 54.0766H590.042L600.542 69.3766H587.822ZM573.722 54.4966L568.442 49.0366H580.322C582.802 49.0366 584.642 48.4966 585.842 47.4166C587.082 46.3366 587.702 44.8366 587.702 42.9166C587.702 40.9566 587.082 39.4366 585.842 38.3566C584.642 37.2766 582.802 36.7366 580.322 36.7366H568.442L573.722 31.2766V54.4966ZM625.816 70.2166C622.376 70.2166 619.056 69.7966 615.856 68.9566C612.696 68.0766 610.116 66.9566 608.116 65.5966L612.016 56.8366C613.896 58.0366 616.056 59.0366 618.496 59.8366C620.976 60.5966 623.436 60.9766 625.876 60.9766C627.516 60.9766 628.836 60.8366 629.836 60.5566C630.836 60.2366 631.556 59.8366 631.996 59.3566C632.476 58.8366 632.716 58.2366 632.716 57.5566C632.716 56.5966 632.276 55.8366 631.396 55.2766C630.516 54.7166 629.376 54.2566 627.976 53.8966C626.576 53.5366 625.016 53.1766 623.296 52.8166C621.616 52.4566 619.916 51.9966 618.196 51.4366C616.516 50.8766 614.976 50.1566 613.576 49.2766C612.176 48.3566 611.036 47.1766 610.156 45.7366C609.276 44.2566 608.836 42.3966 608.836 40.1566C608.836 37.6366 609.516 35.3566 610.876 33.3166C612.276 31.2766 614.356 29.6366 617.116 28.3966C619.876 27.1566 623.316 26.5366 627.436 26.5366C630.196 26.5366 632.896 26.8566 635.536 27.4966C638.216 28.0966 640.596 28.9966 642.676 30.1966L639.016 39.0166C637.016 37.9366 635.036 37.1366 633.076 36.6166C631.116 36.0566 629.216 35.7766 627.376 35.7766C625.736 35.7766 624.416 35.9566 623.416 36.3166C622.416 36.6366 621.696 37.0766 621.256 37.6366C620.816 38.1966 620.596 38.8366 620.596 39.5566C620.596 40.4766 621.016 41.2166 621.856 41.7766C622.736 42.2966 623.876 42.7366 625.276 43.0966C626.716 43.4166 628.276 43.7566 629.956 44.1166C631.676 44.4766 633.376 44.9366 635.056 45.4966C636.776 46.0166 638.336 46.7366 639.736 47.6566C641.136 48.5366 642.256 49.7166 643.096 51.1966C643.976 52.6366 644.416 54.4566 644.416 56.6566C644.416 59.0966 643.716 61.3566 642.316 63.4366C640.956 65.4766 638.896 67.1166 636.136 68.3566C633.416 69.5966 629.976 70.2166 625.816 70.2166Z" fill="white"/>
<path d="M194.99 120.377V99.3766H199.85V120.377H194.99ZM216.234 120.377V99.3766H225.774C228.054 99.3766 230.064 99.8166 231.804 100.697C233.544 101.557 234.904 102.767 235.884 104.327C236.864 105.887 237.354 107.737 237.354 109.877C237.354 111.997 236.864 113.847 235.884 115.427C234.904 116.987 233.544 118.207 231.804 119.087C230.064 119.947 228.054 120.377 225.774 120.377H216.234ZM221.094 116.387H225.534C226.934 116.387 228.144 116.127 229.164 115.607C230.204 115.067 231.004 114.307 231.564 113.327C232.144 112.347 232.434 111.197 232.434 109.877C232.434 108.537 232.144 107.387 231.564 106.427C231.004 105.447 230.204 104.697 229.164 104.177C228.144 103.637 226.934 103.367 225.534 103.367H221.094V116.387ZM256.889 107.837H266.999V111.617H256.889V107.837ZM257.249 116.477H268.679V120.377H252.419V99.3766H268.289V103.277H257.249V116.477ZM281.186 120.377L290.546 99.3766H295.346L304.736 120.377H299.636L291.956 101.837H293.876L286.166 120.377H281.186ZM285.866 115.877L287.156 112.187H297.956L299.276 115.877H285.866ZM325.215 120.737C323.535 120.737 321.925 120.517 320.385 120.077C318.845 119.617 317.605 119.027 316.665 118.307L318.315 114.647C319.215 115.287 320.275 115.817 321.495 116.237C322.735 116.637 323.985 116.837 325.245 116.837C326.205 116.837 326.975 116.747 327.555 116.567C328.155 116.367 328.595 116.097 328.875 115.757C329.155 115.417 329.295 115.027 329.295 114.587C329.295 114.027 329.075 113.587 328.635 113.267C328.195 112.927 327.615 112.657 326.895 112.457C326.175 112.237 325.375 112.037 324.495 111.857C323.635 111.657 322.765 111.417 321.885 111.137C321.025 110.857 320.235 110.497 319.515 110.057C318.795 109.617 318.205 109.037 317.745 108.317C317.305 107.597 317.085 106.677 317.085 105.557C317.085 104.357 317.405 103.267 318.045 102.287C318.705 101.287 319.685 100.497 320.985 99.9166C322.305 99.3166 323.955 99.0166 325.935 99.0166C327.255 99.0166 328.555 99.1766 329.835 99.4966C331.115 99.7966 332.245 100.257 333.225 100.877L331.725 104.567C330.745 104.007 329.765 103.597 328.785 103.337C327.805 103.057 326.845 102.917 325.905 102.917C324.965 102.917 324.195 103.027 323.595 103.247C322.995 103.467 322.565 103.757 322.305 104.117C322.045 104.457 321.915 104.857 321.915 105.317C321.915 105.857 322.135 106.297 322.575 106.637C323.015 106.957 323.595 107.217 324.315 107.417C325.035 107.617 325.825 107.817 326.685 108.017C327.565 108.217 328.435 108.447 329.295 108.707C330.175 108.967 330.975 109.317 331.695 109.757C332.415 110.197 332.995 110.777 333.435 111.497C333.895 112.217 334.125 113.127 334.125 114.227C334.125 115.407 333.795 116.487 333.135 117.467C332.475 118.447 331.485 119.237 330.165 119.837C328.865 120.437 327.215 120.737 325.215 120.737ZM378.792 120.737C377.172 120.737 375.662 120.477 374.262 119.957C372.882 119.417 371.682 118.657 370.662 117.677C369.642 116.697 368.842 115.547 368.262 114.227C367.702 112.907 367.422 111.457 367.422 109.877C367.422 108.297 367.702 106.847 368.262 105.527C368.842 104.207 369.642 103.057 370.662 102.077C371.702 101.097 372.912 100.347 374.292 99.8266C375.672 99.2866 377.182 99.0166 378.822 99.0166C380.642 99.0166 382.282 99.3366 383.742 99.9766C385.222 100.597 386.462 101.517 387.462 102.737L384.342 105.617C383.622 104.797 382.822 104.187 381.942 103.787C381.062 103.367 380.102 103.157 379.062 103.157C378.082 103.157 377.182 103.317 376.362 103.637C375.542 103.957 374.832 104.417 374.232 105.017C373.632 105.617 373.162 106.327 372.822 107.147C372.502 107.967 372.342 108.877 372.342 109.877C372.342 110.877 372.502 111.787 372.822 112.607C373.162 113.427 373.632 114.137 374.232 114.737C374.832 115.337 375.542 115.797 376.362 116.117C377.182 116.437 378.082 116.597 379.062 116.597C380.102 116.597 381.062 116.397 381.942 115.997C382.822 115.577 383.622 114.947 384.342 114.107L387.462 116.987C386.462 118.207 385.222 119.137 383.742 119.777C382.282 120.417 380.632 120.737 378.792 120.737ZM399.003 120.377L408.363 99.3766H413.163L422.553 120.377H417.453L409.773 101.837H411.693L403.983 120.377H399.003ZM403.683 115.877L404.973 112.187H415.773L417.093 115.877H403.683ZM436.131 120.377V99.3766H440.151L452.541 114.497H450.591V99.3766H455.391V120.377H451.401L438.981 105.257H440.931V120.377H436.131ZM496.156 108.827H506.236V112.727H496.156V108.827ZM496.516 120.377H491.656V99.3766H507.526V103.277H496.516V120.377ZM522.216 120.377V99.3766H527.076V116.417H537.606V120.377H522.216ZM554.774 120.377V111.797L555.884 114.737L546.644 99.3766H551.804L558.884 111.167H555.914L563.024 99.3766H567.794L558.554 114.737L559.634 111.797V120.377H554.774Z" fill="white"/>
</svg>
