<svg width="455" height="271" viewBox="0 0 455 271" fill="none" xmlns="http://www.w3.org/2000/svg">
<path d="M230.241 133.586C266.578 133.586 296.035 104.13 296.035 67.7931C296.035 31.4566 266.578 2 230.241 2C193.905 2 164.448 31.4566 164.448 67.7931C164.448 104.13 193.905 133.586 230.241 133.586Z" fill="#FCC700"/>
<mask id="path-2-outside-1_214_144" maskUnits="userSpaceOnUse" x="145" y="0.779663" width="164" height="147" fill="black">
<rect fill="white" x="145" y="0.779663" width="164" height="147"/>
<path d="M188.275 3.0059C186.701 3.40703 185.864 3.94187 185.027 5.11184C184.357 6.04781 184.257 6.71636 184.156 9.75828C183.922 16.0092 184.96 23.9316 186.802 30.2828C187.17 31.5531 187.539 32.8567 187.639 33.1576C187.773 33.6256 187.405 33.7593 185.529 33.9599C176.319 34.8958 164.497 39.3417 155.79 45.1915C149.426 49.4703 147.551 51.6765 148.087 54.3841C148.556 56.9915 156.794 66.4181 162.99 71.4322C172.367 79.0537 184.223 84.1681 197.017 86.1403C200.868 86.7086 211.719 86.9092 213.896 86.4412L215.068 86.1738L213.059 88.3131C208.805 92.8927 205.021 99.3442 202.978 105.629C202.04 108.437 201.772 109.874 201.605 112.916L201.404 116.693L199.428 117.763C197.084 119 195.677 120.504 194.538 122.978C193.031 126.32 194.002 130.398 196.816 132.404C199.126 134.042 203.346 134.543 206.327 133.541L207.901 133.006L210.145 135.145C215.57 140.36 222.57 143.602 231.679 145.14C235.33 145.775 236.703 145.842 242.865 145.675C246.918 145.575 251.037 145.274 252.578 145.006C265.873 142.499 279.638 136.115 288.614 128.293C297.522 120.537 303.249 112.08 305.727 103.122C306.799 99.1771 306.799 91.5222 305.727 87.8117C303.517 80.1902 298.091 73.7721 290.523 69.7274L288.513 68.6577L290.154 67.0198C291.929 65.2147 294.474 63.7104 296.316 63.3762C297.455 63.1756 297.556 63.209 298.192 64.4124C300.402 68.6911 307 67.0866 307 62.2396C307 58.0612 302.311 56.0221 295.781 57.3592C291.963 58.128 289.25 59.532 286.336 62.3065L283.858 64.6464L284.092 63.1756C284.394 61.2034 285.131 59.064 286.236 56.8578C287.173 55.0193 289.417 52.1779 289.92 52.1779C290.054 52.1779 290.69 52.6459 291.293 53.2142C292.666 54.4844 293.57 54.8521 295.312 54.8521C297.02 54.8521 298.56 54.1836 299.699 52.9802C303.249 49.1694 300.536 43.1525 295.245 43.1525C294.307 43.1525 292.9 43.6204 290.69 44.6901C283.623 48.0663 278.734 55.2198 277.997 63.209L277.763 65.4487L276.389 65.1478C275.653 64.9807 272.036 64.7801 268.385 64.6464C261.989 64.4458 261.788 64.4458 261.654 63.7439C259.845 54.0499 258.874 50.7071 256.262 44.7904C247.32 24.3996 229.335 9.52428 207.734 4.54357C201.94 3.23989 190.754 2.33735 188.275 3.0059ZM198.49 13.2347C210.178 14.0704 223.608 20.2545 233.22 29.2466C241.325 36.8681 247.42 47.1303 250.099 57.6935C250.468 59.1643 250.87 60.6685 250.97 61.0362C251.071 61.4039 250.267 60.5682 249.162 59.1977C246.75 56.2227 240.655 50.2725 237.842 48.1332C227.861 40.5785 217.178 35.9655 205.523 34.1604C203.045 33.7927 200.399 33.425 199.696 33.3916C198.423 33.2913 198.356 33.2244 197.753 31.4528C195.777 25.7367 194.806 21.1571 194.27 15.3073L194.069 12.6999L194.84 12.867C195.275 12.9673 196.916 13.101 198.49 13.2347ZM205.356 44.289C215.068 46.2278 222.67 49.5371 230.574 55.2867C233.421 57.3592 241.358 64.8804 241.358 65.5155C241.358 66.0169 235.631 69.46 231.981 71.1648C218.384 77.516 202.241 78.4186 187.874 73.6384C180.271 71.0979 174.377 67.7552 167.712 62.2396C163.928 59.1309 159.674 54.5847 160.177 54.2504C160.378 54.1167 161.182 53.5484 162.019 52.9467C164.397 51.3088 171.162 48.0329 174.879 46.7292C178.798 45.3921 181.745 44.6567 185.931 43.9881C189.984 43.353 201.605 43.5201 205.356 44.289ZM275.351 73.0702C279.404 73.6384 282.083 74.4741 286.068 76.4129C296.953 81.6945 301.273 92.0236 297.355 103.456C296.45 106.097 296.417 106.163 294.843 106.732C292.03 107.768 289.049 108.102 285.968 107.668C283.456 107.3 283.121 107.3 282.552 107.835C281.581 108.737 281.681 110.208 282.786 110.91C283.557 111.412 284.461 111.512 288.48 111.512C291.125 111.512 293.235 111.612 293.202 111.746C292.9 112.515 288.48 117.696 286.47 119.601C283.021 122.844 281.715 123.813 280.944 123.579C279.739 123.178 274.715 119.969 271.969 117.83C265.438 112.782 260.046 105.194 257.936 98.2411C255.994 91.7896 256.027 82.9313 258.003 75.1761L258.539 72.9364L260.917 72.7693C262.223 72.6356 263.83 72.5019 264.467 72.4685C266.443 72.2679 271.835 72.6022 275.351 73.0702ZM245.277 77.3155C244.305 81.3602 244.171 91.5222 245.042 96.1352C246.181 102.186 249.262 109.673 252.712 114.888C255.893 119.668 261.788 125.451 267.481 129.362L269.892 131.034L267.347 132.204C265.94 132.839 263.295 133.875 261.419 134.477L258.037 135.58L255.491 134.243C244.004 128.259 235.698 119.468 232.483 109.874C230.005 102.453 229.938 93.227 232.349 84.469C232.684 83.1987 233.019 82.129 233.053 82.0956C234.493 81.0928 244.138 76.6469 245.009 76.6135C245.31 76.5801 245.377 76.8141 245.277 77.3155ZM218.484 98.308C218.685 113.484 225.316 126.788 237.674 136.817L239.181 138.053L237.172 137.886C224.613 136.75 216.073 132.337 212.389 125.05C210.245 120.805 209.542 118.197 209.542 114.554C209.542 108.303 212.154 101.885 217.178 95.7006C217.814 94.9318 218.35 94.2967 218.384 94.2967C218.384 94.2967 218.451 96.1018 218.484 98.308Z"/>
<path d="M274.952 93.4324C268.77 92.8833 267.371 84.1666 273.032 81.4556C273.748 81.1124 274.366 80.8035 274.399 80.8035C274.464 80.8035 274.203 81.3183 273.846 81.9017C273.065 83.2401 273.032 83.9607 273.683 85.2305C274.334 86.6032 275.83 87.1179 277.262 86.5002C278.531 85.9168 279.052 85.0589 279.052 83.4803L279.084 82.3478L280.028 83.5146C280.613 84.2353 281.069 85.2648 281.199 86.2257C281.785 90.3438 278.824 93.7755 274.952 93.4324Z"/>
<path d="M245.277 77.3155C244.305 81.3602 244.171 91.5222 245.042 96.1352C246.181 102.186 249.262 109.673 252.712 114.888C255.893 119.668 261.788 125.451 267.481 129.362L269.892 131.034L267.347 132.204C265.94 132.839 263.295 133.875 261.419 134.477L258.037 135.58L255.491 134.243C244.004 128.259 235.698 119.468 232.483 109.874C230.005 102.453 229.938 93.227 232.349 84.469C232.684 83.1987 233.019 82.129 233.053 82.0956C234.493 81.0928 244.138 76.6469 245.009 76.6135C245.31 76.5801 245.377 76.8141 245.277 77.3155Z"/>
<path d="M218.484 98.308C218.685 113.484 225.316 126.788 237.674 136.817L239.181 138.053L237.172 137.886C224.613 136.75 216.073 132.337 212.389 125.05C210.245 120.805 209.542 118.197 209.542 114.554C209.542 108.303 212.154 101.885 217.178 95.7006C217.814 94.9318 218.35 94.2967 218.384 94.2967C218.384 94.2967 218.451 96.1018 218.484 98.308Z"/>
<path d="M205.356 44.289C215.068 46.2278 222.67 49.5371 230.574 55.2867C233.421 57.3592 241.358 64.8804 241.358 65.5155C241.358 66.0169 235.631 69.46 231.981 71.1648C218.384 77.516 202.241 78.4186 187.874 73.6384C180.271 71.0979 174.377 67.7552 167.712 62.2396C163.928 59.1309 159.674 54.5847 160.177 54.2504C160.378 54.1167 161.182 53.5484 162.019 52.9467C164.397 51.3088 171.162 48.0329 174.879 46.7292C178.798 45.3921 181.745 44.6567 185.931 43.9881C189.984 43.353 201.605 43.5201 205.356 44.289Z"/>
<path d="M198.49 13.2347C210.178 14.0704 223.608 20.2545 233.22 29.2466C241.325 36.8681 247.42 47.1303 250.099 57.6935C250.468 59.1643 250.87 60.6685 250.97 61.0362C251.071 61.4039 250.267 60.5682 249.162 59.1977C246.75 56.2227 240.655 50.2725 237.842 48.1332C227.861 40.5785 217.178 35.9655 205.523 34.1604C203.045 33.7927 200.399 33.425 199.696 33.3916C198.423 33.2913 198.356 33.2244 197.753 31.4528C195.777 25.7367 194.806 21.1571 194.27 15.3073L194.069 12.6999L194.84 12.867C195.275 12.9673 196.916 13.101 198.49 13.2347Z"/>
<path fill-rule="evenodd" clip-rule="evenodd" d="M275.351 73.0702C279.404 73.6384 282.083 74.4741 286.068 76.4129C296.953 81.6945 301.273 92.0236 297.355 103.456C296.45 106.097 296.417 106.163 294.843 106.732C292.03 107.768 289.049 108.102 285.968 107.668C283.456 107.3 283.121 107.3 282.552 107.835C281.581 108.737 281.681 110.208 282.786 110.91C283.557 111.412 284.461 111.512 288.48 111.512C291.125 111.512 293.235 111.612 293.202 111.746C292.9 112.515 288.48 117.696 286.47 119.601C283.021 122.844 281.715 123.813 280.944 123.579C279.739 123.178 274.715 119.969 271.969 117.83C265.438 112.782 260.046 105.194 257.936 98.2411C255.994 91.7896 256.027 82.9313 258.003 75.1761L258.539 72.9364L260.917 72.7693C262.223 72.6356 263.83 72.5019 264.467 72.4685C266.443 72.2679 271.835 72.6022 275.351 73.0702ZM274.952 93.4324C268.77 92.8833 267.371 84.1666 273.032 81.4556C273.748 81.1124 274.366 80.8035 274.399 80.8035C274.464 80.8035 274.203 81.3183 273.846 81.9017C273.065 83.2401 273.032 83.9607 273.683 85.2305C274.334 86.6032 275.83 87.1179 277.262 86.5002C278.531 85.9168 279.052 85.0589 279.052 83.4803L279.084 82.3478L280.028 83.5146C280.613 84.2353 281.069 85.2648 281.199 86.2257C281.785 90.3438 278.824 93.7755 274.952 93.4324Z"/>
</mask>
<path d="M188.275 3.0059C186.701 3.40703 185.864 3.94187 185.027 5.11184C184.357 6.04781 184.257 6.71636 184.156 9.75828C183.922 16.0092 184.96 23.9316 186.802 30.2828C187.17 31.5531 187.539 32.8567 187.639 33.1576C187.773 33.6256 187.405 33.7593 185.529 33.9599C176.319 34.8958 164.497 39.3417 155.79 45.1915C149.426 49.4703 147.551 51.6765 148.087 54.3841C148.556 56.9915 156.794 66.4181 162.99 71.4322C172.367 79.0537 184.223 84.1681 197.017 86.1403C200.868 86.7086 211.719 86.9092 213.896 86.4412L215.068 86.1738L213.059 88.3131C208.805 92.8927 205.021 99.3442 202.978 105.629C202.04 108.437 201.772 109.874 201.605 112.916L201.404 116.693L199.428 117.763C197.084 119 195.677 120.504 194.538 122.978C193.031 126.32 194.002 130.398 196.816 132.404C199.126 134.042 203.346 134.543 206.327 133.541L207.901 133.006L210.145 135.145C215.57 140.36 222.57 143.602 231.679 145.14C235.33 145.775 236.703 145.842 242.865 145.675C246.918 145.575 251.037 145.274 252.578 145.006C265.873 142.499 279.638 136.115 288.614 128.293C297.522 120.537 303.249 112.08 305.727 103.122C306.799 99.1771 306.799 91.5222 305.727 87.8117C303.517 80.1902 298.091 73.7721 290.523 69.7274L288.513 68.6577L290.154 67.0198C291.929 65.2147 294.474 63.7104 296.316 63.3762C297.455 63.1756 297.556 63.209 298.192 64.4124C300.402 68.6911 307 67.0866 307 62.2396C307 58.0612 302.311 56.0221 295.781 57.3592C291.963 58.128 289.25 59.532 286.336 62.3065L283.858 64.6464L284.092 63.1756C284.394 61.2034 285.131 59.064 286.236 56.8578C287.173 55.0193 289.417 52.1779 289.92 52.1779C290.054 52.1779 290.69 52.6459 291.293 53.2142C292.666 54.4844 293.57 54.8521 295.312 54.8521C297.02 54.8521 298.56 54.1836 299.699 52.9802C303.249 49.1694 300.536 43.1525 295.245 43.1525C294.307 43.1525 292.9 43.6204 290.69 44.6901C283.623 48.0663 278.734 55.2198 277.997 63.209L277.763 65.4487L276.389 65.1478C275.653 64.9807 272.036 64.7801 268.385 64.6464C261.989 64.4458 261.788 64.4458 261.654 63.7439C259.845 54.0499 258.874 50.7071 256.262 44.7904C247.32 24.3996 229.335 9.52428 207.734 4.54357C201.94 3.23989 190.754 2.33735 188.275 3.0059ZM198.49 13.2347C210.178 14.0704 223.608 20.2545 233.22 29.2466C241.325 36.8681 247.42 47.1303 250.099 57.6935C250.468 59.1643 250.87 60.6685 250.97 61.0362C251.071 61.4039 250.267 60.5682 249.162 59.1977C246.75 56.2227 240.655 50.2725 237.842 48.1332C227.861 40.5785 217.178 35.9655 205.523 34.1604C203.045 33.7927 200.399 33.425 199.696 33.3916C198.423 33.2913 198.356 33.2244 197.753 31.4528C195.777 25.7367 194.806 21.1571 194.27 15.3073L194.069 12.6999L194.84 12.867C195.275 12.9673 196.916 13.101 198.49 13.2347ZM205.356 44.289C215.068 46.2278 222.67 49.5371 230.574 55.2867C233.421 57.3592 241.358 64.8804 241.358 65.5155C241.358 66.0169 235.631 69.46 231.981 71.1648C218.384 77.516 202.241 78.4186 187.874 73.6384C180.271 71.0979 174.377 67.7552 167.712 62.2396C163.928 59.1309 159.674 54.5847 160.177 54.2504C160.378 54.1167 161.182 53.5484 162.019 52.9467C164.397 51.3088 171.162 48.0329 174.879 46.7292C178.798 45.3921 181.745 44.6567 185.931 43.9881C189.984 43.353 201.605 43.5201 205.356 44.289ZM275.351 73.0702C279.404 73.6384 282.083 74.4741 286.068 76.4129C296.953 81.6945 301.273 92.0236 297.355 103.456C296.45 106.097 296.417 106.163 294.843 106.732C292.03 107.768 289.049 108.102 285.968 107.668C283.456 107.3 283.121 107.3 282.552 107.835C281.581 108.737 281.681 110.208 282.786 110.91C283.557 111.412 284.461 111.512 288.48 111.512C291.125 111.512 293.235 111.612 293.202 111.746C292.9 112.515 288.48 117.696 286.47 119.601C283.021 122.844 281.715 123.813 280.944 123.579C279.739 123.178 274.715 119.969 271.969 117.83C265.438 112.782 260.046 105.194 257.936 98.2411C255.994 91.7896 256.027 82.9313 258.003 75.1761L258.539 72.9364L260.917 72.7693C262.223 72.6356 263.83 72.5019 264.467 72.4685C266.443 72.2679 271.835 72.6022 275.351 73.0702ZM245.277 77.3155C244.305 81.3602 244.171 91.5222 245.042 96.1352C246.181 102.186 249.262 109.673 252.712 114.888C255.893 119.668 261.788 125.451 267.481 129.362L269.892 131.034L267.347 132.204C265.94 132.839 263.295 133.875 261.419 134.477L258.037 135.58L255.491 134.243C244.004 128.259 235.698 119.468 232.483 109.874C230.005 102.453 229.938 93.227 232.349 84.469C232.684 83.1987 233.019 82.129 233.053 82.0956C234.493 81.0928 244.138 76.6469 245.009 76.6135C245.31 76.5801 245.377 76.8141 245.277 77.3155ZM218.484 98.308C218.685 113.484 225.316 126.788 237.674 136.817L239.181 138.053L237.172 137.886C224.613 136.75 216.073 132.337 212.389 125.05C210.245 120.805 209.542 118.197 209.542 114.554C209.542 108.303 212.154 101.885 217.178 95.7006C217.814 94.9318 218.35 94.2967 218.384 94.2967C218.384 94.2967 218.451 96.1018 218.484 98.308Z" fill="black"/>
<path d="M274.952 93.4324C268.77 92.8833 267.371 84.1666 273.032 81.4556C273.748 81.1124 274.366 80.8035 274.399 80.8035C274.464 80.8035 274.203 81.3183 273.846 81.9017C273.065 83.2401 273.032 83.9607 273.683 85.2305C274.334 86.6032 275.83 87.1179 277.262 86.5002C278.531 85.9168 279.052 85.0589 279.052 83.4803L279.084 82.3478L280.028 83.5146C280.613 84.2353 281.069 85.2648 281.199 86.2257C281.785 90.3438 278.824 93.7755 274.952 93.4324Z" fill="black"/>
<path d="M245.277 77.3155C244.305 81.3602 244.171 91.5222 245.042 96.1352C246.181 102.186 249.262 109.673 252.712 114.888C255.893 119.668 261.788 125.451 267.481 129.362L269.892 131.034L267.347 132.204C265.94 132.839 263.295 133.875 261.419 134.477L258.037 135.58L255.491 134.243C244.004 128.259 235.698 119.468 232.483 109.874C230.005 102.453 229.938 93.227 232.349 84.469C232.684 83.1987 233.019 82.129 233.053 82.0956C234.493 81.0928 244.138 76.6469 245.009 76.6135C245.31 76.5801 245.377 76.8141 245.277 77.3155Z" fill="#FCC700"/>
<path d="M218.484 98.308C218.685 113.484 225.316 126.788 237.674 136.817L239.181 138.053L237.172 137.886C224.613 136.75 216.073 132.337 212.389 125.05C210.245 120.805 209.542 118.197 209.542 114.554C209.542 108.303 212.154 101.885 217.178 95.7006C217.814 94.9318 218.35 94.2967 218.384 94.2967C218.384 94.2967 218.451 96.1018 218.484 98.308Z" fill="#FCC700"/>
<path d="M205.356 44.289C215.068 46.2278 222.67 49.5371 230.574 55.2867C233.421 57.3592 241.358 64.8804 241.358 65.5155C241.358 66.0169 235.631 69.46 231.981 71.1648C218.384 77.516 202.241 78.4186 187.874 73.6384C180.271 71.0979 174.377 67.7552 167.712 62.2396C163.928 59.1309 159.674 54.5847 160.177 54.2504C160.378 54.1167 161.182 53.5484 162.019 52.9467C164.397 51.3088 171.162 48.0329 174.879 46.7292C178.798 45.3921 181.745 44.6567 185.931 43.9881C189.984 43.353 201.605 43.5201 205.356 44.289Z" fill="white"/>
<path d="M198.49 13.2347C210.178 14.0704 223.608 20.2545 233.22 29.2466C241.325 36.8681 247.42 47.1303 250.099 57.6935C250.468 59.1643 250.87 60.6685 250.97 61.0362C251.071 61.4039 250.267 60.5682 249.162 59.1977C246.75 56.2227 240.655 50.2725 237.842 48.1332C227.861 40.5785 217.178 35.9655 205.523 34.1604C203.045 33.7927 200.399 33.425 199.696 33.3916C198.423 33.2913 198.356 33.2244 197.753 31.4528C195.777 25.7367 194.806 21.1571 194.27 15.3073L194.069 12.6999L194.84 12.867C195.275 12.9673 196.916 13.101 198.49 13.2347Z" fill="white"/>
<path fill-rule="evenodd" clip-rule="evenodd" d="M275.351 73.0702C279.404 73.6384 282.083 74.4741 286.068 76.4129C296.953 81.6945 301.273 92.0236 297.355 103.456C296.45 106.097 296.417 106.163 294.843 106.732C292.03 107.768 289.049 108.102 285.968 107.668C283.456 107.3 283.121 107.3 282.552 107.835C281.581 108.737 281.681 110.208 282.786 110.91C283.557 111.412 284.461 111.512 288.48 111.512C291.125 111.512 293.235 111.612 293.202 111.746C292.9 112.515 288.48 117.696 286.47 119.601C283.021 122.844 281.715 123.813 280.944 123.579C279.739 123.178 274.715 119.969 271.969 117.83C265.438 112.782 260.046 105.194 257.936 98.2411C255.994 91.7896 256.027 82.9313 258.003 75.1761L258.539 72.9364L260.917 72.7693C262.223 72.6356 263.83 72.5019 264.467 72.4685C266.443 72.2679 271.835 72.6022 275.351 73.0702ZM274.952 93.4324C268.77 92.8833 267.371 84.1666 273.032 81.4556C273.748 81.1124 274.366 80.8035 274.399 80.8035C274.464 80.8035 274.203 81.3183 273.846 81.9017C273.065 83.2401 273.032 83.9607 273.683 85.2305C274.334 86.6032 275.83 87.1179 277.262 86.5002C278.531 85.9168 279.052 85.0589 279.052 83.4803L279.084 82.3478L280.028 83.5146C280.613 84.2353 281.069 85.2648 281.199 86.2257C281.785 90.3438 278.824 93.7755 274.952 93.4324Z" fill="white"/>
<path d="M188.275 3.0059C186.701 3.40703 185.864 3.94187 185.027 5.11184C184.357 6.04781 184.257 6.71636 184.156 9.75828C183.922 16.0092 184.96 23.9316 186.802 30.2828C187.17 31.5531 187.539 32.8567 187.639 33.1576C187.773 33.6256 187.405 33.7593 185.529 33.9599C176.319 34.8958 164.497 39.3417 155.79 45.1915C149.426 49.4703 147.551 51.6765 148.087 54.3841C148.556 56.9915 156.794 66.4181 162.99 71.4322C172.367 79.0537 184.223 84.1681 197.017 86.1403C200.868 86.7086 211.719 86.9092 213.896 86.4412L215.068 86.1738L213.059 88.3131C208.805 92.8927 205.021 99.3442 202.978 105.629C202.04 108.437 201.772 109.874 201.605 112.916L201.404 116.693L199.428 117.763C197.084 119 195.677 120.504 194.538 122.978C193.031 126.32 194.002 130.398 196.816 132.404C199.126 134.042 203.346 134.543 206.327 133.541L207.901 133.006L210.145 135.145C215.57 140.36 222.57 143.602 231.679 145.14C235.33 145.775 236.703 145.842 242.865 145.675C246.918 145.575 251.037 145.274 252.578 145.006C265.873 142.499 279.638 136.115 288.614 128.293C297.522 120.537 303.249 112.08 305.727 103.122C306.799 99.1771 306.799 91.5222 305.727 87.8117C303.517 80.1902 298.091 73.7721 290.523 69.7274L288.513 68.6577L290.154 67.0198C291.929 65.2147 294.474 63.7104 296.316 63.3762C297.455 63.1756 297.556 63.209 298.192 64.4124C300.402 68.6911 307 67.0866 307 62.2396C307 58.0612 302.311 56.0221 295.781 57.3592C291.963 58.128 289.25 59.532 286.336 62.3065L283.858 64.6464L284.092 63.1756C284.394 61.2034 285.131 59.064 286.236 56.8578C287.173 55.0193 289.417 52.1779 289.92 52.1779C290.054 52.1779 290.69 52.6459 291.293 53.2142C292.666 54.4844 293.57 54.8521 295.312 54.8521C297.02 54.8521 298.56 54.1836 299.699 52.9802C303.249 49.1694 300.536 43.1525 295.245 43.1525C294.307 43.1525 292.9 43.6204 290.69 44.6901C283.623 48.0663 278.734 55.2198 277.997 63.209L277.763 65.4487L276.389 65.1478C275.653 64.9807 272.036 64.7801 268.385 64.6464C261.989 64.4458 261.788 64.4458 261.654 63.7439C259.845 54.0499 258.874 50.7071 256.262 44.7904C247.32 24.3996 229.335 9.52428 207.734 4.54357C201.94 3.23989 190.754 2.33735 188.275 3.0059ZM198.49 13.2347C210.178 14.0704 223.608 20.2545 233.22 29.2466C241.325 36.8681 247.42 47.1303 250.099 57.6935C250.468 59.1643 250.87 60.6685 250.97 61.0362C251.071 61.4039 250.267 60.5682 249.162 59.1977C246.75 56.2227 240.655 50.2725 237.842 48.1332C227.861 40.5785 217.178 35.9655 205.523 34.1604C203.045 33.7927 200.399 33.425 199.696 33.3916C198.423 33.2913 198.356 33.2244 197.753 31.4528C195.777 25.7367 194.806 21.1571 194.27 15.3073L194.069 12.6999L194.84 12.867C195.275 12.9673 196.916 13.101 198.49 13.2347ZM205.356 44.289C215.068 46.2278 222.67 49.5371 230.574 55.2867C233.421 57.3592 241.358 64.8804 241.358 65.5155C241.358 66.0169 235.631 69.46 231.981 71.1648C218.384 77.516 202.241 78.4186 187.874 73.6384C180.271 71.0979 174.377 67.7552 167.712 62.2396C163.928 59.1309 159.674 54.5847 160.177 54.2504C160.378 54.1167 161.182 53.5484 162.019 52.9467C164.397 51.3088 171.162 48.0329 174.879 46.7292C178.798 45.3921 181.745 44.6567 185.931 43.9881C189.984 43.353 201.605 43.5201 205.356 44.289ZM275.351 73.0702C279.404 73.6384 282.083 74.4741 286.068 76.4129C296.953 81.6945 301.273 92.0236 297.355 103.456C296.45 106.097 296.417 106.163 294.843 106.732C292.03 107.768 289.049 108.102 285.968 107.668C283.456 107.3 283.121 107.3 282.552 107.835C281.581 108.737 281.681 110.208 282.786 110.91C283.557 111.412 284.461 111.512 288.48 111.512C291.125 111.512 293.235 111.612 293.202 111.746C292.9 112.515 288.48 117.696 286.47 119.601C283.021 122.844 281.715 123.813 280.944 123.579C279.739 123.178 274.715 119.969 271.969 117.83C265.438 112.782 260.046 105.194 257.936 98.2411C255.994 91.7896 256.027 82.9313 258.003 75.1761L258.539 72.9364L260.917 72.7693C262.223 72.6356 263.83 72.5019 264.467 72.4685C266.443 72.2679 271.835 72.6022 275.351 73.0702ZM245.277 77.3155C244.305 81.3602 244.171 91.5222 245.042 96.1352C246.181 102.186 249.262 109.673 252.712 114.888C255.893 119.668 261.788 125.451 267.481 129.362L269.892 131.034L267.347 132.204C265.94 132.839 263.295 133.875 261.419 134.477L258.037 135.58L255.491 134.243C244.004 128.259 235.698 119.468 232.483 109.874C230.005 102.453 229.938 93.227 232.349 84.469C232.684 83.1987 233.019 82.129 233.053 82.0956C234.493 81.0928 244.138 76.6469 245.009 76.6135C245.31 76.5801 245.377 76.8141 245.277 77.3155ZM218.484 98.308C218.685 113.484 225.316 126.788 237.674 136.817L239.181 138.053L237.172 137.886C224.613 136.75 216.073 132.337 212.389 125.05C210.245 120.805 209.542 118.197 209.542 114.554C209.542 108.303 212.154 101.885 217.178 95.7006C217.814 94.9318 218.35 94.2967 218.384 94.2967C218.384 94.2967 218.451 96.1018 218.484 98.308Z" stroke="white" stroke-width="4" mask="url(#path-2-outside-1_214_144)"/>
<path d="M274.952 93.4324C268.77 92.8833 267.371 84.1666 273.032 81.4556C273.748 81.1124 274.366 80.8035 274.399 80.8035C274.464 80.8035 274.203 81.3183 273.846 81.9017C273.065 83.2401 273.032 83.9607 273.683 85.2305C274.334 86.6032 275.83 87.1179 277.262 86.5002C278.531 85.9168 279.052 85.0589 279.052 83.4803L279.084 82.3478L280.028 83.5146C280.613 84.2353 281.069 85.2648 281.199 86.2257C281.785 90.3438 278.824 93.7755 274.952 93.4324Z" stroke="white" stroke-width="4" mask="url(#path-2-outside-1_214_144)"/>
<path d="M245.277 77.3155C244.305 81.3602 244.171 91.5222 245.042 96.1352C246.181 102.186 249.262 109.673 252.712 114.888C255.893 119.668 261.788 125.451 267.481 129.362L269.892 131.034L267.347 132.204C265.94 132.839 263.295 133.875 261.419 134.477L258.037 135.58L255.491 134.243C244.004 128.259 235.698 119.468 232.483 109.874C230.005 102.453 229.938 93.227 232.349 84.469C232.684 83.1987 233.019 82.129 233.053 82.0956C234.493 81.0928 244.138 76.6469 245.009 76.6135C245.31 76.5801 245.377 76.8141 245.277 77.3155Z" stroke="white" stroke-width="4" mask="url(#path-2-outside-1_214_144)"/>
<path d="M218.484 98.308C218.685 113.484 225.316 126.788 237.674 136.817L239.181 138.053L237.172 137.886C224.613 136.75 216.073 132.337 212.389 125.05C210.245 120.805 209.542 118.197 209.542 114.554C209.542 108.303 212.154 101.885 217.178 95.7006C217.814 94.9318 218.35 94.2967 218.384 94.2967C218.384 94.2967 218.451 96.1018 218.484 98.308Z" stroke="white" stroke-width="4" mask="url(#path-2-outside-1_214_144)"/>
<path d="M205.356 44.289C215.068 46.2278 222.67 49.5371 230.574 55.2867C233.421 57.3592 241.358 64.8804 241.358 65.5155C241.358 66.0169 235.631 69.46 231.981 71.1648C218.384 77.516 202.241 78.4186 187.874 73.6384C180.271 71.0979 174.377 67.7552 167.712 62.2396C163.928 59.1309 159.674 54.5847 160.177 54.2504C160.378 54.1167 161.182 53.5484 162.019 52.9467C164.397 51.3088 171.162 48.0329 174.879 46.7292C178.798 45.3921 181.745 44.6567 185.931 43.9881C189.984 43.353 201.605 43.5201 205.356 44.289Z" stroke="white" stroke-width="4" mask="url(#path-2-outside-1_214_144)"/>
<path d="M198.49 13.2347C210.178 14.0704 223.608 20.2545 233.22 29.2466C241.325 36.8681 247.42 47.1303 250.099 57.6935C250.468 59.1643 250.87 60.6685 250.97 61.0362C251.071 61.4039 250.267 60.5682 249.162 59.1977C246.75 56.2227 240.655 50.2725 237.842 48.1332C227.861 40.5785 217.178 35.9655 205.523 34.1604C203.045 33.7927 200.399 33.425 199.696 33.3916C198.423 33.2913 198.356 33.2244 197.753 31.4528C195.777 25.7367 194.806 21.1571 194.27 15.3073L194.069 12.6999L194.84 12.867C195.275 12.9673 196.916 13.101 198.49 13.2347Z" stroke="white" stroke-width="4" mask="url(#path-2-outside-1_214_144)"/>
<path fill-rule="evenodd" clip-rule="evenodd" d="M275.351 73.0702C279.404 73.6384 282.083 74.4741 286.068 76.4129C296.953 81.6945 301.273 92.0236 297.355 103.456C296.45 106.097 296.417 106.163 294.843 106.732C292.03 107.768 289.049 108.102 285.968 107.668C283.456 107.3 283.121 107.3 282.552 107.835C281.581 108.737 281.681 110.208 282.786 110.91C283.557 111.412 284.461 111.512 288.48 111.512C291.125 111.512 293.235 111.612 293.202 111.746C292.9 112.515 288.48 117.696 286.47 119.601C283.021 122.844 281.715 123.813 280.944 123.579C279.739 123.178 274.715 119.969 271.969 117.83C265.438 112.782 260.046 105.194 257.936 98.2411C255.994 91.7896 256.027 82.9313 258.003 75.1761L258.539 72.9364L260.917 72.7693C262.223 72.6356 263.83 72.5019 264.467 72.4685C266.443 72.2679 271.835 72.6022 275.351 73.0702ZM274.952 93.4324C268.77 92.8833 267.371 84.1666 273.032 81.4556C273.748 81.1124 274.366 80.8035 274.399 80.8035C274.464 80.8035 274.203 81.3183 273.846 81.9017C273.065 83.2401 273.032 83.9607 273.683 85.2305C274.334 86.6032 275.83 87.1179 277.262 86.5002C278.531 85.9168 279.052 85.0589 279.052 83.4803L279.084 82.3478L280.028 83.5146C280.613 84.2353 281.069 85.2648 281.199 86.2257C281.785 90.3438 278.824 93.7755 274.952 93.4324Z" stroke="white" stroke-width="4" mask="url(#path-2-outside-1_214_144)"/>
<path d="M4.2 217.753V175.753H25.68C31.2 175.753 35.32 176.773 38.04 178.813C40.76 180.813 42.12 183.453 42.12 186.733C42.12 188.893 41.54 190.793 40.38 192.433C39.26 194.033 37.66 195.313 35.58 196.273C33.54 197.193 31.1 197.653 28.26 197.653L29.46 194.773C32.42 194.773 35 195.233 37.2 196.153C39.4 197.033 41.1 198.333 42.3 200.053C43.54 201.733 44.16 203.793 44.16 206.233C44.16 209.873 42.68 212.713 39.72 214.753C36.8 216.753 32.52 217.753 26.88 217.753H4.2ZM15.96 209.173H25.92C27.96 209.173 29.5 208.833 30.54 208.153C31.62 207.433 32.16 206.353 32.16 204.913C32.16 203.473 31.62 202.413 30.54 201.733C29.5 201.013 27.96 200.653 25.92 200.653H15.12V192.433H24.12C26.12 192.433 27.62 192.093 28.62 191.413C29.62 190.733 30.12 189.713 30.12 188.353C30.12 186.993 29.62 185.993 28.62 185.353C27.62 184.673 26.12 184.333 24.12 184.333H15.96V209.173ZM66.0333 192.013H85.5333V200.893H66.0333V192.013ZM66.8733 208.573H88.8333V217.753H55.1133V175.753H88.0533V184.933H66.8733V208.573ZM111.146 192.013H130.646V200.893H111.146V192.013ZM111.986 208.573H133.946V217.753H100.226V175.753H133.166V184.933H111.986V208.573ZM188.539 218.593C185.219 218.593 182.139 218.073 179.299 217.033C176.499 215.953 174.059 214.433 171.979 212.473C169.939 210.513 168.339 208.213 167.179 205.573C166.019 202.893 165.439 199.953 165.439 196.753C165.439 193.553 166.019 190.633 167.179 187.993C168.339 185.313 169.939 182.993 171.979 181.033C174.059 179.073 176.499 177.573 179.299 176.533C182.139 175.453 185.219 174.913 188.539 174.913C192.419 174.913 195.879 175.593 198.919 176.953C201.999 178.313 204.559 180.273 206.599 182.833L199.039 189.673C197.679 188.073 196.179 186.853 194.539 186.013C192.939 185.173 191.139 184.753 189.139 184.753C187.419 184.753 185.839 185.033 184.399 185.593C182.959 186.153 181.719 186.973 180.679 188.053C179.679 189.093 178.879 190.353 178.279 191.833C177.719 193.313 177.439 194.953 177.439 196.753C177.439 198.553 177.719 200.193 178.279 201.673C178.879 203.153 179.679 204.433 180.679 205.513C181.719 206.553 182.959 207.353 184.399 207.913C185.839 208.473 187.419 208.753 189.139 208.753C191.139 208.753 192.939 208.333 194.539 207.493C196.179 206.653 197.679 205.433 199.039 203.833L206.599 210.673C204.559 213.193 201.999 215.153 198.919 216.553C195.879 217.913 192.419 218.593 188.539 218.593ZM236.997 218.593C233.637 218.593 230.537 218.053 227.697 216.973C224.857 215.893 222.377 214.373 220.257 212.413C218.177 210.413 216.557 208.093 215.397 205.453C214.237 202.813 213.657 199.913 213.657 196.753C213.657 193.593 214.237 190.693 215.397 188.053C216.557 185.413 218.177 183.113 220.257 181.153C222.377 179.153 224.857 177.613 227.697 176.533C230.537 175.453 233.637 174.913 236.997 174.913C240.397 174.913 243.497 175.453 246.297 176.533C249.137 177.613 251.597 179.153 253.677 181.153C255.757 183.113 257.377 185.413 258.537 188.053C259.737 190.693 260.337 193.593 260.337 196.753C260.337 199.913 259.737 202.833 258.537 205.513C257.377 208.153 255.757 210.453 253.677 212.413C251.597 214.373 249.137 215.893 246.297 216.973C243.497 218.053 240.397 218.593 236.997 218.593ZM236.997 208.753C238.597 208.753 240.077 208.473 241.437 207.913C242.837 207.353 244.037 206.553 245.037 205.513C246.077 204.433 246.877 203.153 247.437 201.673C248.037 200.193 248.337 198.553 248.337 196.753C248.337 194.913 248.037 193.273 247.437 191.833C246.877 190.353 246.077 189.093 245.037 188.053C244.037 186.973 242.837 186.153 241.437 185.593C240.077 185.033 238.597 184.753 236.997 184.753C235.397 184.753 233.897 185.033 232.497 185.593C231.137 186.153 229.937 186.973 228.897 188.053C227.897 189.093 227.097 190.353 226.497 191.833C225.937 193.273 225.657 194.913 225.657 196.753C225.657 198.553 225.937 200.193 226.497 201.673C227.097 203.153 227.897 204.433 228.897 205.513C229.937 206.553 231.137 207.353 232.497 207.913C233.897 208.473 235.397 208.753 236.997 208.753ZM271.359 217.753V175.753H291.219C295.859 175.753 299.939 176.613 303.459 178.333C306.979 180.053 309.719 182.473 311.679 185.593C313.679 188.713 314.679 192.433 314.679 196.753C314.679 201.033 313.679 204.753 311.679 207.913C309.719 211.033 306.979 213.453 303.459 215.173C299.939 216.893 295.859 217.753 291.219 217.753H271.359ZM283.239 208.273H290.739C293.139 208.273 295.219 207.833 296.979 206.953C298.779 206.033 300.179 204.713 301.179 202.993C302.179 201.233 302.679 199.153 302.679 196.753C302.679 194.313 302.179 192.233 301.179 190.513C300.179 188.793 298.779 187.493 296.979 186.613C295.219 185.693 293.139 185.233 290.739 185.233H283.239V208.273ZM336.65 192.013H356.15V200.893H336.65V192.013ZM337.49 208.573H359.45V217.753H325.73V175.753H358.67V184.933H337.49V208.573ZM370.842 217.753V175.753H390.042C393.882 175.753 397.182 176.373 399.942 177.613C402.742 178.853 404.902 180.653 406.422 183.013C407.942 185.333 408.702 188.093 408.702 191.293C408.702 194.453 407.942 197.193 406.422 199.513C404.902 201.793 402.742 203.553 399.942 204.793C397.182 205.993 393.882 206.593 390.042 206.593H377.442L382.722 201.613V217.753H370.842ZM396.822 217.753L386.382 202.453H399.042L409.542 217.753H396.822ZM382.722 202.873L377.442 197.413H389.322C391.802 197.413 393.642 196.873 394.842 195.793C396.082 194.713 396.702 193.213 396.702 191.293C396.702 189.333 396.082 187.813 394.842 186.733C393.642 185.653 391.802 185.113 389.322 185.113H377.442L382.722 179.653V202.873ZM434.816 218.593C431.376 218.593 428.056 218.173 424.856 217.333C421.696 216.453 419.116 215.333 417.116 213.973L421.016 205.213C422.896 206.413 425.056 207.413 427.496 208.213C429.976 208.973 432.436 209.353 434.876 209.353C436.516 209.353 437.836 209.213 438.836 208.933C439.836 208.613 440.556 208.213 440.996 207.733C441.476 207.213 441.716 206.613 441.716 205.933C441.716 204.973 441.276 204.213 440.396 203.653C439.516 203.093 438.376 202.633 436.976 202.273C435.576 201.913 434.016 201.553 432.296 201.193C430.616 200.833 428.916 200.373 427.196 199.813C425.516 199.253 423.976 198.533 422.576 197.653C421.176 196.733 420.036 195.553 419.156 194.113C418.276 192.633 417.836 190.773 417.836 188.533C417.836 186.013 418.516 183.733 419.876 181.693C421.276 179.653 423.356 178.013 426.116 176.773C428.876 175.533 432.316 174.913 436.436 174.913C439.196 174.913 441.896 175.233 444.536 175.873C447.216 176.473 449.596 177.373 451.676 178.573L448.016 187.393C446.016 186.313 444.036 185.513 442.076 184.993C440.116 184.433 438.216 184.153 436.376 184.153C434.736 184.153 433.416 184.333 432.416 184.693C431.416 185.013 430.696 185.453 430.256 186.013C429.816 186.573 429.596 187.213 429.596 187.933C429.596 188.853 430.016 189.593 430.856 190.153C431.736 190.673 432.876 191.113 434.276 191.473C435.716 191.793 437.276 192.133 438.956 192.493C440.676 192.853 442.376 193.313 444.056 193.873C445.776 194.393 447.336 195.113 448.736 196.033C450.136 196.913 451.256 198.093 452.096 199.573C452.976 201.013 453.416 202.833 453.416 205.033C453.416 207.473 452.716 209.733 451.316 211.813C449.956 213.853 447.896 215.493 445.136 216.733C442.416 217.973 438.976 218.593 434.816 218.593Z" fill="black"/>
<path d="M42.49 268.753V247.753H47.35V268.753H42.49ZM63.7337 268.753V247.753H73.2738C75.5538 247.753 77.5638 248.193 79.3038 249.073C81.0438 249.933 82.4038 251.143 83.3838 252.703C84.3638 254.263 84.8538 256.113 84.8538 258.253C84.8538 260.373 84.3638 262.223 83.3838 263.803C82.4038 265.363 81.0438 266.583 79.3038 267.463C77.5638 268.323 75.5538 268.753 73.2738 268.753H63.7337ZM68.5937 264.763H73.0337C74.4338 264.763 75.6438 264.503 76.6637 263.983C77.7038 263.443 78.5038 262.683 79.0638 261.703C79.6438 260.723 79.9338 259.573 79.9338 258.253C79.9338 256.913 79.6438 255.763 79.0638 254.803C78.5038 253.823 77.7038 253.073 76.6637 252.553C75.6438 252.013 74.4338 251.743 73.0337 251.743H68.5937V264.763ZM104.389 256.213H114.499V259.993H104.389V256.213ZM104.749 264.853H116.179V268.753H99.9189V247.753H115.789V251.653H104.749V264.853ZM128.686 268.753L138.046 247.753H142.846L152.236 268.753H147.136L139.456 250.213H141.376L133.666 268.753H128.686ZM133.366 264.253L134.656 260.563H145.456L146.776 264.253H133.366ZM172.715 269.113C171.035 269.113 169.425 268.893 167.885 268.453C166.345 267.993 165.105 267.403 164.165 266.683L165.815 263.023C166.715 263.663 167.775 264.193 168.995 264.613C170.235 265.013 171.485 265.213 172.745 265.213C173.705 265.213 174.475 265.123 175.055 264.943C175.655 264.743 176.095 264.473 176.375 264.133C176.655 263.793 176.795 263.403 176.795 262.963C176.795 262.403 176.575 261.963 176.135 261.643C175.695 261.303 175.115 261.033 174.395 260.833C173.675 260.613 172.875 260.413 171.995 260.233C171.135 260.033 170.265 259.793 169.385 259.513C168.525 259.233 167.735 258.873 167.015 258.433C166.295 257.993 165.705 257.413 165.245 256.693C164.805 255.973 164.585 255.053 164.585 253.933C164.585 252.733 164.905 251.643 165.545 250.663C166.205 249.663 167.185 248.873 168.485 248.293C169.805 247.693 171.455 247.393 173.435 247.393C174.755 247.393 176.055 247.553 177.335 247.873C178.615 248.173 179.745 248.633 180.725 249.253L179.225 252.943C178.245 252.383 177.265 251.973 176.285 251.713C175.305 251.433 174.345 251.293 173.405 251.293C172.465 251.293 171.695 251.403 171.095 251.623C170.495 251.843 170.065 252.133 169.805 252.493C169.545 252.833 169.415 253.233 169.415 253.693C169.415 254.233 169.635 254.673 170.075 255.013C170.515 255.333 171.095 255.593 171.815 255.793C172.535 255.993 173.325 256.193 174.185 256.393C175.065 256.593 175.935 256.823 176.795 257.083C177.675 257.343 178.475 257.693 179.195 258.133C179.915 258.573 180.495 259.153 180.935 259.873C181.395 260.593 181.625 261.503 181.625 262.603C181.625 263.783 181.295 264.863 180.635 265.843C179.975 266.823 178.985 267.613 177.665 268.213C176.365 268.813 174.715 269.113 172.715 269.113ZM226.292 269.113C224.672 269.113 223.162 268.853 221.762 268.333C220.382 267.793 219.182 267.033 218.162 266.053C217.142 265.073 216.342 263.923 215.762 262.603C215.202 261.283 214.922 259.833 214.922 258.253C214.922 256.673 215.202 255.223 215.762 253.903C216.342 252.583 217.142 251.433 218.162 250.453C219.202 249.473 220.412 248.723 221.792 248.203C223.172 247.663 224.682 247.393 226.322 247.393C228.142 247.393 229.782 247.713 231.242 248.353C232.722 248.973 233.962 249.893 234.962 251.113L231.842 253.993C231.122 253.173 230.322 252.563 229.442 252.163C228.562 251.743 227.602 251.533 226.562 251.533C225.582 251.533 224.682 251.693 223.862 252.013C223.042 252.333 222.332 252.793 221.732 253.393C221.132 253.993 220.662 254.703 220.322 255.523C220.002 256.343 219.842 257.253 219.842 258.253C219.842 259.253 220.002 260.163 220.322 260.983C220.662 261.803 221.132 262.513 221.732 263.113C222.332 263.713 223.042 264.173 223.862 264.493C224.682 264.813 225.582 264.973 226.562 264.973C227.602 264.973 228.562 264.773 229.442 264.373C230.322 263.953 231.122 263.323 231.842 262.483L234.962 265.363C233.962 266.583 232.722 267.513 231.242 268.153C229.782 268.793 228.132 269.113 226.292 269.113ZM246.503 268.753L255.863 247.753H260.663L270.053 268.753H264.953L257.273 250.213H259.193L251.483 268.753H246.503ZM251.183 264.253L252.473 260.563H263.273L264.593 264.253H251.183ZM283.631 268.753V247.753H287.651L300.041 262.873H298.091V247.753H302.891V268.753H298.901L286.481 253.633H288.431V268.753H283.631ZM343.656 257.203H353.736V261.103H343.656V257.203ZM344.016 268.753H339.156V247.753H355.026V251.653H344.016V268.753ZM369.716 268.753V247.753H374.576V264.793H385.106V268.753H369.716ZM402.274 268.753V260.173L403.384 263.113L394.144 247.753H399.304L406.384 259.543H403.414L410.524 247.753H415.294L406.054 263.113L407.134 260.173V268.753H402.274Z" fill="black"/>
</svg>
