<svg width="593" height="431" viewBox="0 0 593 431" fill="none" xmlns="http://www.w3.org/2000/svg">
<path d="M299.241 213.71C335.578 213.71 365.035 184.253 365.035 147.917C365.035 111.58 335.578 82.1234 299.241 82.1234C262.905 82.1234 233.448 111.58 233.448 147.917C233.448 184.253 262.905 213.71 299.241 213.71Z" fill="#FCC700"/>
<mask id="path-2-outside-1_321_2" maskUnits="userSpaceOnUse" x="214" y="80.9031" width="164" height="147" fill="black">
<rect fill="white" x="214" y="80.9031" width="164" height="147"/>
<path d="M257.275 83.1293C255.701 83.5304 254.864 84.0653 254.027 85.2353C253.357 86.1712 253.257 86.8398 253.156 89.8817C252.922 96.1326 253.96 104.055 255.802 110.406C256.17 111.676 256.539 112.98 256.639 113.281C256.773 113.749 256.405 113.883 254.529 114.083C245.319 115.019 233.497 119.465 224.79 125.315C218.426 129.594 216.551 131.8 217.087 134.508C217.556 137.115 225.794 146.541 231.99 151.556C241.367 159.177 253.223 164.292 266.017 166.264C269.868 166.832 280.719 167.033 282.896 166.565L284.068 166.297L282.059 168.437C277.805 173.016 274.021 179.468 271.978 185.752C271.04 188.56 270.772 189.997 270.605 193.039L270.404 196.817L268.428 197.886C266.084 199.123 264.677 200.627 263.538 203.101C262.031 206.444 263.002 210.522 265.816 212.528C268.126 214.165 272.346 214.667 275.327 213.664L276.901 213.129L279.145 215.269C284.57 220.483 291.57 223.726 300.679 225.263C304.33 225.899 305.703 225.965 311.865 225.798C315.918 225.698 320.037 225.397 321.578 225.13C334.873 222.623 348.638 216.238 357.614 208.416C366.522 200.661 372.249 192.204 374.727 183.245C375.799 179.301 375.799 171.646 374.727 167.935C372.517 160.314 367.091 153.896 359.523 149.851L357.513 148.781L359.154 147.143C360.929 145.338 363.474 143.834 365.316 143.5C366.455 143.299 366.556 143.332 367.192 144.536C369.402 148.815 376 147.21 376 142.363C376 138.185 371.311 136.145 364.781 137.483C360.963 138.251 358.25 139.655 355.336 142.43L352.858 144.77L353.092 143.299C353.394 141.327 354.131 139.187 355.236 136.981C356.173 135.143 358.417 132.301 358.92 132.301C359.054 132.301 359.69 132.769 360.293 133.338C361.666 134.608 362.57 134.976 364.312 134.976C366.02 134.976 367.56 134.307 368.699 133.104C372.249 129.293 369.536 123.276 364.245 123.276C363.307 123.276 361.9 123.744 359.69 124.814C352.623 128.19 347.734 135.343 346.997 143.332L346.763 145.572L345.389 145.271C344.653 145.104 341.036 144.904 337.385 144.77C330.988 144.569 330.788 144.569 330.654 143.867C328.845 134.173 327.874 130.831 325.262 124.914C316.32 104.523 298.335 89.6477 276.734 84.667C270.94 83.3633 259.754 82.4608 257.275 83.1293ZM267.49 93.3582C279.178 94.1938 292.608 100.378 302.22 109.37C310.325 116.991 316.42 127.254 319.099 137.817C319.468 139.288 319.87 140.792 319.97 141.16C320.071 141.527 319.267 140.692 318.162 139.321C315.75 136.346 309.655 130.396 306.842 128.257C296.861 120.702 286.178 116.089 274.523 114.284C272.045 113.916 269.399 113.548 268.696 113.515C267.423 113.415 267.356 113.348 266.753 111.576C264.777 105.86 263.806 101.28 263.27 95.4307L263.069 92.8233L263.84 92.9905C264.275 93.0907 265.916 93.2244 267.49 93.3582ZM274.356 124.412C284.068 126.351 291.67 129.661 299.574 135.41C302.421 137.483 310.358 145.004 310.358 145.639C310.358 146.14 304.631 149.583 300.981 151.288C287.384 157.639 271.241 158.542 256.874 153.762C249.271 151.221 243.377 147.879 236.712 142.363C232.928 139.254 228.674 134.708 229.177 134.374C229.378 134.24 230.182 133.672 231.019 133.07C233.397 131.432 240.162 128.156 243.879 126.853C247.798 125.516 250.745 124.78 254.931 124.112C258.984 123.476 270.605 123.644 274.356 124.412ZM344.351 153.194C348.404 153.762 351.083 154.598 355.068 156.536C365.953 161.818 370.273 172.147 366.355 183.579C365.45 186.22 365.417 186.287 363.843 186.855C361.03 187.891 358.049 188.226 354.968 187.791C352.456 187.423 352.121 187.423 351.552 187.958C350.581 188.861 350.681 190.332 351.786 191.034C352.557 191.535 353.461 191.635 357.48 191.635C360.125 191.635 362.235 191.736 362.202 191.869C361.9 192.638 357.48 197.819 355.47 199.725C352.021 202.967 350.715 203.937 349.944 203.703C348.739 203.302 343.715 200.092 340.969 197.953C334.438 192.906 329.046 185.317 326.936 178.365C324.994 171.913 325.027 163.055 327.003 155.3L327.539 153.06L329.917 152.893C331.223 152.759 332.83 152.625 333.467 152.592C335.443 152.391 340.835 152.726 344.351 153.194ZM314.277 157.439C313.305 161.484 313.171 171.646 314.042 176.259C315.181 182.309 318.262 189.797 321.712 195.011C324.893 199.792 330.788 205.575 336.481 209.486L338.892 211.157L336.347 212.327C334.94 212.962 332.295 213.998 330.419 214.6L327.037 215.703L324.491 214.366C313.004 208.383 304.698 199.591 301.483 189.997C299.005 182.576 298.938 173.35 301.349 164.592C301.684 163.322 302.019 162.252 302.053 162.219C303.493 161.216 313.138 156.77 314.009 156.737C314.31 156.703 314.377 156.937 314.277 157.439ZM287.484 178.431C287.685 193.608 294.316 206.912 306.674 216.94L308.181 218.177L306.172 218.01C293.613 216.873 285.073 212.461 281.389 205.173C279.245 200.928 278.542 198.321 278.542 194.677C278.542 188.426 281.154 182.008 286.178 175.824C286.814 175.055 287.35 174.42 287.384 174.42C287.384 174.42 287.451 176.225 287.484 178.431Z"/>
<path d="M343.952 173.556C337.77 173.007 336.371 164.29 342.032 161.579C342.748 161.236 343.366 160.927 343.399 160.927C343.464 160.927 343.204 161.442 342.846 162.025C342.065 163.363 342.032 164.084 342.683 165.354C343.334 166.727 344.83 167.241 346.262 166.624C347.531 166.04 348.052 165.182 348.052 163.604L348.084 162.471L349.028 163.638C349.613 164.359 350.069 165.388 350.199 166.349C350.785 170.467 347.824 173.899 343.952 173.556Z"/>
<path d="M314.277 157.439C313.305 161.484 313.171 171.646 314.042 176.259C315.181 182.309 318.262 189.797 321.712 195.011C324.893 199.792 330.788 205.575 336.481 209.486L338.892 211.157L336.347 212.327C334.94 212.962 332.295 213.998 330.419 214.6L327.037 215.703L324.491 214.366C313.004 208.383 304.698 199.591 301.483 189.997C299.005 182.576 298.938 173.35 301.349 164.592C301.684 163.322 302.019 162.252 302.053 162.219C303.493 161.216 313.138 156.77 314.009 156.737C314.31 156.703 314.377 156.937 314.277 157.439Z"/>
<path d="M287.484 178.431C287.685 193.608 294.316 206.912 306.674 216.94L308.181 218.177L306.172 218.01C293.613 216.873 285.073 212.461 281.389 205.173C279.245 200.928 278.542 198.321 278.542 194.677C278.542 188.426 281.154 182.008 286.178 175.824C286.814 175.055 287.35 174.42 287.384 174.42C287.384 174.42 287.451 176.225 287.484 178.431Z"/>
<path d="M274.356 124.412C284.068 126.351 291.67 129.661 299.574 135.41C302.421 137.483 310.358 145.004 310.358 145.639C310.358 146.14 304.631 149.583 300.981 151.288C287.384 157.639 271.241 158.542 256.874 153.762C249.271 151.221 243.377 147.879 236.712 142.363C232.928 139.254 228.674 134.708 229.177 134.374C229.378 134.24 230.182 133.672 231.019 133.07C233.397 131.432 240.162 128.156 243.879 126.853C247.798 125.516 250.745 124.78 254.931 124.112C258.984 123.476 270.605 123.644 274.356 124.412Z"/>
<path d="M267.49 93.3582C279.178 94.1938 292.608 100.378 302.22 109.37C310.325 116.991 316.42 127.254 319.099 137.817C319.468 139.288 319.87 140.792 319.97 141.16C320.071 141.527 319.267 140.692 318.162 139.321C315.75 136.346 309.655 130.396 306.842 128.257C296.861 120.702 286.178 116.089 274.523 114.284C272.045 113.916 269.399 113.548 268.696 113.515C267.423 113.415 267.356 113.348 266.753 111.576C264.777 105.86 263.806 101.28 263.27 95.4307L263.069 92.8233L263.84 92.9905C264.275 93.0907 265.916 93.2244 267.49 93.3582Z"/>
<path fill-rule="evenodd" clip-rule="evenodd" d="M344.351 153.194C348.404 153.762 351.083 154.598 355.068 156.536C365.953 161.818 370.273 172.147 366.355 183.579C365.45 186.22 365.417 186.287 363.843 186.855C361.03 187.891 358.049 188.226 354.968 187.791C352.456 187.423 352.121 187.423 351.552 187.958C350.581 188.861 350.681 190.332 351.786 191.034C352.557 191.535 353.461 191.635 357.48 191.635C360.125 191.635 362.235 191.736 362.202 191.869C361.9 192.638 357.48 197.819 355.47 199.725C352.021 202.967 350.715 203.937 349.944 203.703C348.739 203.302 343.715 200.092 340.969 197.953C334.438 192.906 329.046 185.317 326.936 178.365C324.994 171.913 325.027 163.055 327.003 155.3L327.539 153.06L329.917 152.893C331.223 152.759 332.83 152.625 333.467 152.592C335.443 152.391 340.835 152.726 344.351 153.194ZM343.952 173.556C337.77 173.007 336.371 164.29 342.032 161.579C342.748 161.236 343.366 160.927 343.399 160.927C343.464 160.927 343.204 161.442 342.846 162.025C342.065 163.363 342.032 164.084 342.683 165.354C343.334 166.727 344.83 167.241 346.262 166.624C347.531 166.04 348.052 165.182 348.052 163.604L348.084 162.471L349.028 163.638C349.613 164.359 350.069 165.388 350.199 166.349C350.785 170.467 347.824 173.899 343.952 173.556Z"/>
</mask>
<path d="M257.275 83.1293C255.701 83.5304 254.864 84.0653 254.027 85.2353C253.357 86.1712 253.257 86.8398 253.156 89.8817C252.922 96.1326 253.96 104.055 255.802 110.406C256.17 111.676 256.539 112.98 256.639 113.281C256.773 113.749 256.405 113.883 254.529 114.083C245.319 115.019 233.497 119.465 224.79 125.315C218.426 129.594 216.551 131.8 217.087 134.508C217.556 137.115 225.794 146.541 231.99 151.556C241.367 159.177 253.223 164.292 266.017 166.264C269.868 166.832 280.719 167.033 282.896 166.565L284.068 166.297L282.059 168.437C277.805 173.016 274.021 179.468 271.978 185.752C271.04 188.56 270.772 189.997 270.605 193.039L270.404 196.817L268.428 197.886C266.084 199.123 264.677 200.627 263.538 203.101C262.031 206.444 263.002 210.522 265.816 212.528C268.126 214.165 272.346 214.667 275.327 213.664L276.901 213.129L279.145 215.269C284.57 220.483 291.57 223.726 300.679 225.263C304.33 225.899 305.703 225.965 311.865 225.798C315.918 225.698 320.037 225.397 321.578 225.13C334.873 222.623 348.638 216.238 357.614 208.416C366.522 200.661 372.249 192.204 374.727 183.245C375.799 179.301 375.799 171.646 374.727 167.935C372.517 160.314 367.091 153.896 359.523 149.851L357.513 148.781L359.154 147.143C360.929 145.338 363.474 143.834 365.316 143.5C366.455 143.299 366.556 143.332 367.192 144.536C369.402 148.815 376 147.21 376 142.363C376 138.185 371.311 136.145 364.781 137.483C360.963 138.251 358.25 139.655 355.336 142.43L352.858 144.77L353.092 143.299C353.394 141.327 354.131 139.187 355.236 136.981C356.173 135.143 358.417 132.301 358.92 132.301C359.054 132.301 359.69 132.769 360.293 133.338C361.666 134.608 362.57 134.976 364.312 134.976C366.02 134.976 367.56 134.307 368.699 133.104C372.249 129.293 369.536 123.276 364.245 123.276C363.307 123.276 361.9 123.744 359.69 124.814C352.623 128.19 347.734 135.343 346.997 143.332L346.763 145.572L345.389 145.271C344.653 145.104 341.036 144.904 337.385 144.77C330.988 144.569 330.788 144.569 330.654 143.867C328.845 134.173 327.874 130.831 325.262 124.914C316.32 104.523 298.335 89.6477 276.734 84.667C270.94 83.3633 259.754 82.4608 257.275 83.1293ZM267.49 93.3582C279.178 94.1938 292.608 100.378 302.22 109.37C310.325 116.991 316.42 127.254 319.099 137.817C319.468 139.288 319.87 140.792 319.97 141.16C320.071 141.527 319.267 140.692 318.162 139.321C315.75 136.346 309.655 130.396 306.842 128.257C296.861 120.702 286.178 116.089 274.523 114.284C272.045 113.916 269.399 113.548 268.696 113.515C267.423 113.415 267.356 113.348 266.753 111.576C264.777 105.86 263.806 101.28 263.27 95.4307L263.069 92.8233L263.84 92.9905C264.275 93.0907 265.916 93.2244 267.49 93.3582ZM274.356 124.412C284.068 126.351 291.67 129.661 299.574 135.41C302.421 137.483 310.358 145.004 310.358 145.639C310.358 146.14 304.631 149.583 300.981 151.288C287.384 157.639 271.241 158.542 256.874 153.762C249.271 151.221 243.377 147.879 236.712 142.363C232.928 139.254 228.674 134.708 229.177 134.374C229.378 134.24 230.182 133.672 231.019 133.07C233.397 131.432 240.162 128.156 243.879 126.853C247.798 125.516 250.745 124.78 254.931 124.112C258.984 123.476 270.605 123.644 274.356 124.412ZM344.351 153.194C348.404 153.762 351.083 154.598 355.068 156.536C365.953 161.818 370.273 172.147 366.355 183.579C365.45 186.22 365.417 186.287 363.843 186.855C361.03 187.891 358.049 188.226 354.968 187.791C352.456 187.423 352.121 187.423 351.552 187.958C350.581 188.861 350.681 190.332 351.786 191.034C352.557 191.535 353.461 191.635 357.48 191.635C360.125 191.635 362.235 191.736 362.202 191.869C361.9 192.638 357.48 197.819 355.47 199.725C352.021 202.967 350.715 203.937 349.944 203.703C348.739 203.302 343.715 200.092 340.969 197.953C334.438 192.906 329.046 185.317 326.936 178.365C324.994 171.913 325.027 163.055 327.003 155.3L327.539 153.06L329.917 152.893C331.223 152.759 332.83 152.625 333.467 152.592C335.443 152.391 340.835 152.726 344.351 153.194ZM314.277 157.439C313.305 161.484 313.171 171.646 314.042 176.259C315.181 182.309 318.262 189.797 321.712 195.011C324.893 199.792 330.788 205.575 336.481 209.486L338.892 211.157L336.347 212.327C334.94 212.962 332.295 213.998 330.419 214.6L327.037 215.703L324.491 214.366C313.004 208.383 304.698 199.591 301.483 189.997C299.005 182.576 298.938 173.35 301.349 164.592C301.684 163.322 302.019 162.252 302.053 162.219C303.493 161.216 313.138 156.77 314.009 156.737C314.31 156.703 314.377 156.937 314.277 157.439ZM287.484 178.431C287.685 193.608 294.316 206.912 306.674 216.94L308.181 218.177L306.172 218.01C293.613 216.873 285.073 212.461 281.389 205.173C279.245 200.928 278.542 198.321 278.542 194.677C278.542 188.426 281.154 182.008 286.178 175.824C286.814 175.055 287.35 174.42 287.384 174.42C287.384 174.42 287.451 176.225 287.484 178.431Z" fill="black"/>
<path d="M343.952 173.556C337.77 173.007 336.371 164.29 342.032 161.579C342.748 161.236 343.366 160.927 343.399 160.927C343.464 160.927 343.204 161.442 342.846 162.025C342.065 163.363 342.032 164.084 342.683 165.354C343.334 166.727 344.83 167.241 346.262 166.624C347.531 166.04 348.052 165.182 348.052 163.604L348.084 162.471L349.028 163.638C349.613 164.359 350.069 165.388 350.199 166.349C350.785 170.467 347.824 173.899 343.952 173.556Z" fill="black"/>
<path d="M314.277 157.439C313.305 161.484 313.171 171.646 314.042 176.259C315.181 182.309 318.262 189.797 321.712 195.011C324.893 199.792 330.788 205.575 336.481 209.486L338.892 211.157L336.347 212.327C334.94 212.962 332.295 213.998 330.419 214.6L327.037 215.703L324.491 214.366C313.004 208.383 304.698 199.591 301.483 189.997C299.005 182.576 298.938 173.35 301.349 164.592C301.684 163.322 302.019 162.252 302.053 162.219C303.493 161.216 313.138 156.77 314.009 156.737C314.31 156.703 314.377 156.937 314.277 157.439Z" fill="#FCC700"/>
<path d="M287.484 178.431C287.685 193.608 294.316 206.912 306.674 216.94L308.181 218.177L306.172 218.01C293.613 216.873 285.073 212.461 281.389 205.173C279.245 200.928 278.542 198.321 278.542 194.677C278.542 188.426 281.154 182.008 286.178 175.824C286.814 175.055 287.35 174.42 287.384 174.42C287.384 174.42 287.451 176.225 287.484 178.431Z" fill="#FCC700"/>
<path d="M274.356 124.412C284.068 126.351 291.67 129.661 299.574 135.41C302.421 137.483 310.358 145.004 310.358 145.639C310.358 146.14 304.631 149.583 300.981 151.288C287.384 157.639 271.241 158.542 256.874 153.762C249.271 151.221 243.377 147.879 236.712 142.363C232.928 139.254 228.674 134.708 229.177 134.374C229.378 134.24 230.182 133.672 231.019 133.07C233.397 131.432 240.162 128.156 243.879 126.853C247.798 125.516 250.745 124.78 254.931 124.112C258.984 123.476 270.605 123.644 274.356 124.412Z" fill="white"/>
<path d="M267.49 93.3582C279.178 94.1938 292.608 100.378 302.22 109.37C310.325 116.991 316.42 127.254 319.099 137.817C319.468 139.288 319.87 140.792 319.97 141.16C320.071 141.527 319.267 140.692 318.162 139.321C315.75 136.346 309.655 130.396 306.842 128.257C296.861 120.702 286.178 116.089 274.523 114.284C272.045 113.916 269.399 113.548 268.696 113.515C267.423 113.415 267.356 113.348 266.753 111.576C264.777 105.86 263.806 101.28 263.27 95.4307L263.069 92.8233L263.84 92.9905C264.275 93.0907 265.916 93.2244 267.49 93.3582Z" fill="white"/>
<path fill-rule="evenodd" clip-rule="evenodd" d="M344.351 153.194C348.404 153.762 351.083 154.598 355.068 156.536C365.953 161.818 370.273 172.147 366.355 183.579C365.45 186.22 365.417 186.287 363.843 186.855C361.03 187.891 358.049 188.226 354.968 187.791C352.456 187.423 352.121 187.423 351.552 187.958C350.581 188.861 350.681 190.332 351.786 191.034C352.557 191.535 353.461 191.635 357.48 191.635C360.125 191.635 362.235 191.736 362.202 191.869C361.9 192.638 357.48 197.819 355.47 199.725C352.021 202.967 350.715 203.937 349.944 203.703C348.739 203.302 343.715 200.092 340.969 197.953C334.438 192.906 329.046 185.317 326.936 178.365C324.994 171.913 325.027 163.055 327.003 155.3L327.539 153.06L329.917 152.893C331.223 152.759 332.83 152.625 333.467 152.592C335.443 152.391 340.835 152.726 344.351 153.194ZM343.952 173.556C337.77 173.007 336.371 164.29 342.032 161.579C342.748 161.236 343.366 160.927 343.399 160.927C343.464 160.927 343.204 161.442 342.846 162.025C342.065 163.363 342.032 164.084 342.683 165.354C343.334 166.727 344.83 167.241 346.262 166.624C347.531 166.04 348.052 165.182 348.052 163.604L348.084 162.471L349.028 163.638C349.613 164.359 350.069 165.388 350.199 166.349C350.785 170.467 347.824 173.899 343.952 173.556Z" fill="white"/>
<path d="M257.275 83.1293C255.701 83.5304 254.864 84.0653 254.027 85.2353C253.357 86.1712 253.257 86.8398 253.156 89.8817C252.922 96.1326 253.96 104.055 255.802 110.406C256.17 111.676 256.539 112.98 256.639 113.281C256.773 113.749 256.405 113.883 254.529 114.083C245.319 115.019 233.497 119.465 224.79 125.315C218.426 129.594 216.551 131.8 217.087 134.508C217.556 137.115 225.794 146.541 231.99 151.556C241.367 159.177 253.223 164.292 266.017 166.264C269.868 166.832 280.719 167.033 282.896 166.565L284.068 166.297L282.059 168.437C277.805 173.016 274.021 179.468 271.978 185.752C271.04 188.56 270.772 189.997 270.605 193.039L270.404 196.817L268.428 197.886C266.084 199.123 264.677 200.627 263.538 203.101C262.031 206.444 263.002 210.522 265.816 212.528C268.126 214.165 272.346 214.667 275.327 213.664L276.901 213.129L279.145 215.269C284.57 220.483 291.57 223.726 300.679 225.263C304.33 225.899 305.703 225.965 311.865 225.798C315.918 225.698 320.037 225.397 321.578 225.13C334.873 222.623 348.638 216.238 357.614 208.416C366.522 200.661 372.249 192.204 374.727 183.245C375.799 179.301 375.799 171.646 374.727 167.935C372.517 160.314 367.091 153.896 359.523 149.851L357.513 148.781L359.154 147.143C360.929 145.338 363.474 143.834 365.316 143.5C366.455 143.299 366.556 143.332 367.192 144.536C369.402 148.815 376 147.21 376 142.363C376 138.185 371.311 136.145 364.781 137.483C360.963 138.251 358.25 139.655 355.336 142.43L352.858 144.77L353.092 143.299C353.394 141.327 354.131 139.187 355.236 136.981C356.173 135.143 358.417 132.301 358.92 132.301C359.054 132.301 359.69 132.769 360.293 133.338C361.666 134.608 362.57 134.976 364.312 134.976C366.02 134.976 367.56 134.307 368.699 133.104C372.249 129.293 369.536 123.276 364.245 123.276C363.307 123.276 361.9 123.744 359.69 124.814C352.623 128.19 347.734 135.343 346.997 143.332L346.763 145.572L345.389 145.271C344.653 145.104 341.036 144.904 337.385 144.77C330.988 144.569 330.788 144.569 330.654 143.867C328.845 134.173 327.874 130.831 325.262 124.914C316.32 104.523 298.335 89.6477 276.734 84.667C270.94 83.3633 259.754 82.4608 257.275 83.1293ZM267.49 93.3582C279.178 94.1938 292.608 100.378 302.22 109.37C310.325 116.991 316.42 127.254 319.099 137.817C319.468 139.288 319.87 140.792 319.97 141.16C320.071 141.527 319.267 140.692 318.162 139.321C315.75 136.346 309.655 130.396 306.842 128.257C296.861 120.702 286.178 116.089 274.523 114.284C272.045 113.916 269.399 113.548 268.696 113.515C267.423 113.415 267.356 113.348 266.753 111.576C264.777 105.86 263.806 101.28 263.27 95.4307L263.069 92.8233L263.84 92.9905C264.275 93.0907 265.916 93.2244 267.49 93.3582ZM274.356 124.412C284.068 126.351 291.67 129.661 299.574 135.41C302.421 137.483 310.358 145.004 310.358 145.639C310.358 146.14 304.631 149.583 300.981 151.288C287.384 157.639 271.241 158.542 256.874 153.762C249.271 151.221 243.377 147.879 236.712 142.363C232.928 139.254 228.674 134.708 229.177 134.374C229.378 134.24 230.182 133.672 231.019 133.07C233.397 131.432 240.162 128.156 243.879 126.853C247.798 125.516 250.745 124.78 254.931 124.112C258.984 123.476 270.605 123.644 274.356 124.412ZM344.351 153.194C348.404 153.762 351.083 154.598 355.068 156.536C365.953 161.818 370.273 172.147 366.355 183.579C365.45 186.22 365.417 186.287 363.843 186.855C361.03 187.891 358.049 188.226 354.968 187.791C352.456 187.423 352.121 187.423 351.552 187.958C350.581 188.861 350.681 190.332 351.786 191.034C352.557 191.535 353.461 191.635 357.48 191.635C360.125 191.635 362.235 191.736 362.202 191.869C361.9 192.638 357.48 197.819 355.47 199.725C352.021 202.967 350.715 203.937 349.944 203.703C348.739 203.302 343.715 200.092 340.969 197.953C334.438 192.906 329.046 185.317 326.936 178.365C324.994 171.913 325.027 163.055 327.003 155.3L327.539 153.06L329.917 152.893C331.223 152.759 332.83 152.625 333.467 152.592C335.443 152.391 340.835 152.726 344.351 153.194ZM314.277 157.439C313.305 161.484 313.171 171.646 314.042 176.259C315.181 182.309 318.262 189.797 321.712 195.011C324.893 199.792 330.788 205.575 336.481 209.486L338.892 211.157L336.347 212.327C334.94 212.962 332.295 213.998 330.419 214.6L327.037 215.703L324.491 214.366C313.004 208.383 304.698 199.591 301.483 189.997C299.005 182.576 298.938 173.35 301.349 164.592C301.684 163.322 302.019 162.252 302.053 162.219C303.493 161.216 313.138 156.77 314.009 156.737C314.31 156.703 314.377 156.937 314.277 157.439ZM287.484 178.431C287.685 193.608 294.316 206.912 306.674 216.94L308.181 218.177L306.172 218.01C293.613 216.873 285.073 212.461 281.389 205.173C279.245 200.928 278.542 198.321 278.542 194.677C278.542 188.426 281.154 182.008 286.178 175.824C286.814 175.055 287.35 174.42 287.384 174.42C287.384 174.42 287.451 176.225 287.484 178.431Z" stroke="white" stroke-width="4" mask="url(#path-2-outside-1_321_2)"/>
<path d="M343.952 173.556C337.77 173.007 336.371 164.29 342.032 161.579C342.748 161.236 343.366 160.927 343.399 160.927C343.464 160.927 343.204 161.442 342.846 162.025C342.065 163.363 342.032 164.084 342.683 165.354C343.334 166.727 344.83 167.241 346.262 166.624C347.531 166.04 348.052 165.182 348.052 163.604L348.084 162.471L349.028 163.638C349.613 164.359 350.069 165.388 350.199 166.349C350.785 170.467 347.824 173.899 343.952 173.556Z" stroke="white" stroke-width="4" mask="url(#path-2-outside-1_321_2)"/>
<path d="M314.277 157.439C313.305 161.484 313.171 171.646 314.042 176.259C315.181 182.309 318.262 189.797 321.712 195.011C324.893 199.792 330.788 205.575 336.481 209.486L338.892 211.157L336.347 212.327C334.94 212.962 332.295 213.998 330.419 214.6L327.037 215.703L324.491 214.366C313.004 208.383 304.698 199.591 301.483 189.997C299.005 182.576 298.938 173.35 301.349 164.592C301.684 163.322 302.019 162.252 302.053 162.219C303.493 161.216 313.138 156.77 314.009 156.737C314.31 156.703 314.377 156.937 314.277 157.439Z" stroke="white" stroke-width="4" mask="url(#path-2-outside-1_321_2)"/>
<path d="M287.484 178.431C287.685 193.608 294.316 206.912 306.674 216.94L308.181 218.177L306.172 218.01C293.613 216.873 285.073 212.461 281.389 205.173C279.245 200.928 278.542 198.321 278.542 194.677C278.542 188.426 281.154 182.008 286.178 175.824C286.814 175.055 287.35 174.42 287.384 174.42C287.384 174.42 287.451 176.225 287.484 178.431Z" stroke="white" stroke-width="4" mask="url(#path-2-outside-1_321_2)"/>
<path d="M274.356 124.412C284.068 126.351 291.67 129.661 299.574 135.41C302.421 137.483 310.358 145.004 310.358 145.639C310.358 146.14 304.631 149.583 300.981 151.288C287.384 157.639 271.241 158.542 256.874 153.762C249.271 151.221 243.377 147.879 236.712 142.363C232.928 139.254 228.674 134.708 229.177 134.374C229.378 134.24 230.182 133.672 231.019 133.07C233.397 131.432 240.162 128.156 243.879 126.853C247.798 125.516 250.745 124.78 254.931 124.112C258.984 123.476 270.605 123.644 274.356 124.412Z" stroke="white" stroke-width="4" mask="url(#path-2-outside-1_321_2)"/>
<path d="M267.49 93.3582C279.178 94.1938 292.608 100.378 302.22 109.37C310.325 116.991 316.42 127.254 319.099 137.817C319.468 139.288 319.87 140.792 319.97 141.16C320.071 141.527 319.267 140.692 318.162 139.321C315.75 136.346 309.655 130.396 306.842 128.257C296.861 120.702 286.178 116.089 274.523 114.284C272.045 113.916 269.399 113.548 268.696 113.515C267.423 113.415 267.356 113.348 266.753 111.576C264.777 105.86 263.806 101.28 263.27 95.4307L263.069 92.8233L263.84 92.9905C264.275 93.0907 265.916 93.2244 267.49 93.3582Z" stroke="white" stroke-width="4" mask="url(#path-2-outside-1_321_2)"/>
<path fill-rule="evenodd" clip-rule="evenodd" d="M344.351 153.194C348.404 153.762 351.083 154.598 355.068 156.536C365.953 161.818 370.273 172.147 366.355 183.579C365.45 186.22 365.417 186.287 363.843 186.855C361.03 187.891 358.049 188.226 354.968 187.791C352.456 187.423 352.121 187.423 351.552 187.958C350.581 188.861 350.681 190.332 351.786 191.034C352.557 191.535 353.461 191.635 357.48 191.635C360.125 191.635 362.235 191.736 362.202 191.869C361.9 192.638 357.48 197.819 355.47 199.725C352.021 202.967 350.715 203.937 349.944 203.703C348.739 203.302 343.715 200.092 340.969 197.953C334.438 192.906 329.046 185.317 326.936 178.365C324.994 171.913 325.027 163.055 327.003 155.3L327.539 153.06L329.917 152.893C331.223 152.759 332.83 152.625 333.467 152.592C335.443 152.391 340.835 152.726 344.351 153.194ZM343.952 173.556C337.77 173.007 336.371 164.29 342.032 161.579C342.748 161.236 343.366 160.927 343.399 160.927C343.464 160.927 343.204 161.442 342.846 162.025C342.065 163.363 342.032 164.084 342.683 165.354C343.334 166.727 344.83 167.241 346.262 166.624C347.531 166.04 348.052 165.182 348.052 163.604L348.084 162.471L349.028 163.638C349.613 164.359 350.069 165.388 350.199 166.349C350.785 170.467 347.824 173.899 343.952 173.556Z" stroke="white" stroke-width="4" mask="url(#path-2-outside-1_321_2)"/>
<path d="M73.2 297.877V255.877H94.68C100.2 255.877 104.32 256.897 107.04 258.937C109.76 260.937 111.12 263.577 111.12 266.857C111.12 269.017 110.54 270.917 109.38 272.557C108.26 274.157 106.66 275.437 104.58 276.397C102.54 277.317 100.1 277.777 97.26 277.777L98.46 274.897C101.42 274.897 104 275.357 106.2 276.277C108.4 277.157 110.1 278.457 111.3 280.177C112.54 281.857 113.16 283.917 113.16 286.357C113.16 289.997 111.68 292.837 108.72 294.877C105.8 296.877 101.52 297.877 95.88 297.877H73.2ZM84.96 289.297H94.92C96.96 289.297 98.5 288.957 99.54 288.277C100.62 287.557 101.16 286.477 101.16 285.037C101.16 283.597 100.62 282.537 99.54 281.857C98.5 281.137 96.96 280.777 94.92 280.777H84.12V272.557H93.12C95.12 272.557 96.62 272.217 97.62 271.537C98.62 270.857 99.12 269.837 99.12 268.477C99.12 267.117 98.62 266.117 97.62 265.477C96.62 264.797 95.12 264.457 93.12 264.457H84.96V289.297ZM135.033 272.137H154.533V281.017H135.033V272.137ZM135.873 288.697H157.833V297.877H124.113V255.877H157.053V265.057H135.873V288.697ZM180.146 272.137H199.646V281.017H180.146V272.137ZM180.986 288.697H202.946V297.877H169.226V255.877H202.166V265.057H180.986V288.697ZM257.539 298.717C254.219 298.717 251.139 298.197 248.299 297.157C245.499 296.077 243.059 294.557 240.979 292.597C238.939 290.637 237.339 288.337 236.179 285.697C235.019 283.017 234.439 280.077 234.439 276.877C234.439 273.677 235.019 270.757 236.179 268.117C237.339 265.437 238.939 263.117 240.979 261.157C243.059 259.197 245.499 257.697 248.299 256.657C251.139 255.577 254.219 255.037 257.539 255.037C261.419 255.037 264.879 255.717 267.919 257.077C270.999 258.437 273.559 260.397 275.599 262.957L268.039 269.797C266.679 268.197 265.179 266.977 263.539 266.137C261.939 265.297 260.139 264.877 258.139 264.877C256.419 264.877 254.839 265.157 253.399 265.717C251.959 266.277 250.719 267.097 249.679 268.177C248.679 269.217 247.879 270.477 247.279 271.957C246.719 273.437 246.439 275.077 246.439 276.877C246.439 278.677 246.719 280.317 247.279 281.797C247.879 283.277 248.679 284.557 249.679 285.637C250.719 286.677 251.959 287.477 253.399 288.037C254.839 288.597 256.419 288.877 258.139 288.877C260.139 288.877 261.939 288.457 263.539 287.617C265.179 286.777 266.679 285.557 268.039 283.957L275.599 290.797C273.559 293.317 270.999 295.277 267.919 296.677C264.879 298.037 261.419 298.717 257.539 298.717ZM305.997 298.717C302.637 298.717 299.537 298.177 296.697 297.097C293.857 296.017 291.377 294.497 289.257 292.537C287.177 290.537 285.557 288.217 284.397 285.577C283.237 282.937 282.657 280.037 282.657 276.877C282.657 273.717 283.237 270.817 284.397 268.177C285.557 265.537 287.177 263.237 289.257 261.277C291.377 259.277 293.857 257.737 296.697 256.657C299.537 255.577 302.637 255.037 305.997 255.037C309.397 255.037 312.497 255.577 315.297 256.657C318.137 257.737 320.597 259.277 322.677 261.277C324.757 263.237 326.377 265.537 327.537 268.177C328.737 270.817 329.337 273.717 329.337 276.877C329.337 280.037 328.737 282.957 327.537 285.637C326.377 288.277 324.757 290.577 322.677 292.537C320.597 294.497 318.137 296.017 315.297 297.097C312.497 298.177 309.397 298.717 305.997 298.717ZM305.997 288.877C307.597 288.877 309.077 288.597 310.437 288.037C311.837 287.477 313.037 286.677 314.037 285.637C315.077 284.557 315.877 283.277 316.437 281.797C317.037 280.317 317.337 278.677 317.337 276.877C317.337 275.037 317.037 273.397 316.437 271.957C315.877 270.477 315.077 269.217 314.037 268.177C313.037 267.097 311.837 266.277 310.437 265.717C309.077 265.157 307.597 264.877 305.997 264.877C304.397 264.877 302.897 265.157 301.497 265.717C300.137 266.277 298.937 267.097 297.897 268.177C296.897 269.217 296.097 270.477 295.497 271.957C294.937 273.397 294.657 275.037 294.657 276.877C294.657 278.677 294.937 280.317 295.497 281.797C296.097 283.277 296.897 284.557 297.897 285.637C298.937 286.677 300.137 287.477 301.497 288.037C302.897 288.597 304.397 288.877 305.997 288.877ZM340.359 297.877V255.877H360.219C364.859 255.877 368.939 256.737 372.459 258.457C375.979 260.177 378.719 262.597 380.679 265.717C382.679 268.837 383.679 272.557 383.679 276.877C383.679 281.157 382.679 284.877 380.679 288.037C378.719 291.157 375.979 293.577 372.459 295.297C368.939 297.017 364.859 297.877 360.219 297.877H340.359ZM352.239 288.397H359.739C362.139 288.397 364.219 287.957 365.979 287.077C367.779 286.157 369.179 284.837 370.179 283.117C371.179 281.357 371.679 279.277 371.679 276.877C371.679 274.437 371.179 272.357 370.179 270.637C369.179 268.917 367.779 267.617 365.979 266.737C364.219 265.817 362.139 265.357 359.739 265.357H352.239V288.397ZM405.65 272.137H425.15V281.017H405.65V272.137ZM406.49 288.697H428.45V297.877H394.73V255.877H427.67V265.057H406.49V288.697ZM439.842 297.877V255.877H459.042C462.882 255.877 466.182 256.497 468.942 257.737C471.742 258.977 473.902 260.777 475.422 263.137C476.942 265.457 477.702 268.217 477.702 271.417C477.702 274.577 476.942 277.317 475.422 279.637C473.902 281.917 471.742 283.677 468.942 284.917C466.182 286.117 462.882 286.717 459.042 286.717H446.442L451.722 281.737V297.877H439.842ZM465.822 297.877L455.382 282.577H468.042L478.542 297.877H465.822ZM451.722 282.997L446.442 277.537H458.322C460.802 277.537 462.642 276.997 463.842 275.917C465.082 274.837 465.702 273.337 465.702 271.417C465.702 269.457 465.082 267.937 463.842 266.857C462.642 265.777 460.802 265.237 458.322 265.237H446.442L451.722 259.777V282.997ZM503.816 298.717C500.376 298.717 497.056 298.297 493.856 297.457C490.696 296.577 488.116 295.457 486.116 294.097L490.016 285.337C491.896 286.537 494.056 287.537 496.496 288.337C498.976 289.097 501.436 289.477 503.876 289.477C505.516 289.477 506.836 289.337 507.836 289.057C508.836 288.737 509.556 288.337 509.996 287.857C510.476 287.337 510.716 286.737 510.716 286.057C510.716 285.097 510.276 284.337 509.396 283.777C508.516 283.217 507.376 282.757 505.976 282.397C504.576 282.037 503.016 281.677 501.296 281.317C499.616 280.957 497.916 280.497 496.196 279.937C494.516 279.377 492.976 278.657 491.576 277.777C490.176 276.857 489.036 275.677 488.156 274.237C487.276 272.757 486.836 270.897 486.836 268.657C486.836 266.137 487.516 263.857 488.876 261.817C490.276 259.777 492.356 258.137 495.116 256.897C497.876 255.657 501.316 255.037 505.436 255.037C508.196 255.037 510.896 255.357 513.536 255.997C516.216 256.597 518.596 257.497 520.676 258.697L517.016 267.517C515.016 266.437 513.036 265.637 511.076 265.117C509.116 264.557 507.216 264.277 505.376 264.277C503.736 264.277 502.416 264.457 501.416 264.817C500.416 265.137 499.696 265.577 499.256 266.137C498.816 266.697 498.596 267.337 498.596 268.057C498.596 268.977 499.016 269.717 499.856 270.277C500.736 270.797 501.876 271.237 503.276 271.597C504.716 271.917 506.276 272.257 507.956 272.617C509.676 272.977 511.376 273.437 513.056 273.997C514.776 274.517 516.336 275.237 517.736 276.157C519.136 277.037 520.256 278.217 521.096 279.697C521.976 281.137 522.416 282.957 522.416 285.157C522.416 287.597 521.716 289.857 520.316 291.937C518.956 293.977 516.896 295.617 514.136 296.857C511.416 298.097 507.976 298.717 503.816 298.717Z" fill="white"/>
<path d="M111.49 348.877V327.877H116.35V348.877H111.49ZM132.734 348.877V327.877H142.274C144.554 327.877 146.564 328.317 148.304 329.197C150.044 330.057 151.404 331.267 152.384 332.827C153.364 334.387 153.854 336.237 153.854 338.377C153.854 340.497 153.364 342.347 152.384 343.927C151.404 345.487 150.044 346.707 148.304 347.587C146.564 348.447 144.554 348.877 142.274 348.877H132.734ZM137.594 344.887H142.034C143.434 344.887 144.644 344.627 145.664 344.107C146.704 343.567 147.504 342.807 148.064 341.827C148.644 340.847 148.934 339.697 148.934 338.377C148.934 337.037 148.644 335.887 148.064 334.927C147.504 333.947 146.704 333.197 145.664 332.677C144.644 332.137 143.434 331.867 142.034 331.867H137.594V344.887ZM173.389 336.337H183.499V340.117H173.389V336.337ZM173.749 344.977H185.179V348.877H168.919V327.877H184.789V331.777H173.749V344.977ZM197.686 348.877L207.046 327.877H211.846L221.236 348.877H216.136L208.456 330.337H210.376L202.666 348.877H197.686ZM202.366 344.377L203.656 340.687H214.456L215.776 344.377H202.366ZM241.715 349.237C240.035 349.237 238.425 349.017 236.885 348.577C235.345 348.117 234.105 347.527 233.165 346.807L234.815 343.147C235.715 343.787 236.775 344.317 237.995 344.737C239.235 345.137 240.485 345.337 241.745 345.337C242.705 345.337 243.475 345.247 244.055 345.067C244.655 344.867 245.095 344.597 245.375 344.257C245.655 343.917 245.795 343.527 245.795 343.087C245.795 342.527 245.575 342.087 245.135 341.767C244.695 341.427 244.115 341.157 243.395 340.957C242.675 340.737 241.875 340.537 240.995 340.357C240.135 340.157 239.265 339.917 238.385 339.637C237.525 339.357 236.735 338.997 236.015 338.557C235.295 338.117 234.705 337.537 234.245 336.817C233.805 336.097 233.585 335.177 233.585 334.057C233.585 332.857 233.905 331.767 234.545 330.787C235.205 329.787 236.185 328.997 237.485 328.417C238.805 327.817 240.455 327.517 242.435 327.517C243.755 327.517 245.055 327.677 246.335 327.997C247.615 328.297 248.745 328.757 249.725 329.377L248.225 333.067C247.245 332.507 246.265 332.097 245.285 331.837C244.305 331.557 243.345 331.417 242.405 331.417C241.465 331.417 240.695 331.527 240.095 331.747C239.495 331.967 239.065 332.257 238.805 332.617C238.545 332.957 238.415 333.357 238.415 333.817C238.415 334.357 238.635 334.797 239.075 335.137C239.515 335.457 240.095 335.717 240.815 335.917C241.535 336.117 242.325 336.317 243.185 336.517C244.065 336.717 244.935 336.947 245.795 337.207C246.675 337.467 247.475 337.817 248.195 338.257C248.915 338.697 249.495 339.277 249.935 339.997C250.395 340.717 250.625 341.627 250.625 342.727C250.625 343.907 250.295 344.987 249.635 345.967C248.975 346.947 247.985 347.737 246.665 348.337C245.365 348.937 243.715 349.237 241.715 349.237ZM295.292 349.237C293.672 349.237 292.162 348.977 290.762 348.457C289.382 347.917 288.182 347.157 287.162 346.177C286.142 345.197 285.342 344.047 284.762 342.727C284.202 341.407 283.922 339.957 283.922 338.377C283.922 336.797 284.202 335.347 284.762 334.027C285.342 332.707 286.142 331.557 287.162 330.577C288.202 329.597 289.412 328.847 290.792 328.327C292.172 327.787 293.682 327.517 295.322 327.517C297.142 327.517 298.782 327.837 300.242 328.477C301.722 329.097 302.962 330.017 303.962 331.237L300.842 334.117C300.122 333.297 299.322 332.687 298.442 332.287C297.562 331.867 296.602 331.657 295.562 331.657C294.582 331.657 293.682 331.817 292.862 332.137C292.042 332.457 291.332 332.917 290.732 333.517C290.132 334.117 289.662 334.827 289.322 335.647C289.002 336.467 288.842 337.377 288.842 338.377C288.842 339.377 289.002 340.287 289.322 341.107C289.662 341.927 290.132 342.637 290.732 343.237C291.332 343.837 292.042 344.297 292.862 344.617C293.682 344.937 294.582 345.097 295.562 345.097C296.602 345.097 297.562 344.897 298.442 344.497C299.322 344.077 300.122 343.447 300.842 342.607L303.962 345.487C302.962 346.707 301.722 347.637 300.242 348.277C298.782 348.917 297.132 349.237 295.292 349.237ZM315.503 348.877L324.863 327.877H329.663L339.053 348.877H333.953L326.273 330.337H328.193L320.483 348.877H315.503ZM320.183 344.377L321.473 340.687H332.273L333.593 344.377H320.183ZM352.631 348.877V327.877H356.651L369.041 342.997H367.091V327.877H371.891V348.877H367.901L355.481 333.757H357.431V348.877H352.631ZM412.656 337.327H422.736V341.227H412.656V337.327ZM413.016 348.877H408.156V327.877H424.026V331.777H413.016V348.877ZM438.716 348.877V327.877H443.576V344.917H454.106V348.877H438.716ZM471.274 348.877V340.297L472.384 343.237L463.144 327.877H468.304L475.384 339.667H472.414L479.524 327.877H484.294L475.054 343.237L476.134 340.297V348.877H471.274Z" fill="white"/>
</svg>
