<svg width="360" height="325" fill="none" xmlns="http://www.w3.org/2000/svg"><path d="M180.759 286.517c78.843 0 142.758-63.915 142.758-142.758C323.517 64.915 259.602 1 180.759 1 101.915 1 38 64.915 38 143.759c0 78.843 63.915 142.758 142.759 142.758z" fill="#FCC700"/><mask id="a" maskUnits="userSpaceOnUse" x="0" y="-.594" width="360" height="326" fill="#000"><path fill="#fff" d="M0-.594h360v326H0z"/><path d="M95.39 7.897c-3.415.87-5.232 2.03-7.049 4.57-1.453 2.03-1.671 3.48-1.889 10.081-.509 13.563 1.744 30.753 5.74 44.534.8 2.757 1.6 5.585 1.818 6.238.29 1.016-.51 1.306-4.579 1.74-19.983 2.032-45.635 11.678-64.53 24.371-13.806 9.285-17.876 14.072-16.713 19.947 1.017 5.657 18.894 26.111 32.337 36.991 20.348 16.537 46.072 27.634 73.832 31.914 8.357 1.233 31.901 1.668 36.625.652l2.543-.58-4.36 4.642c-9.229 9.937-17.441 23.936-21.873 37.572-2.035 6.092-2.616 9.211-2.98 15.811l-.436 8.197-4.287 2.321c-5.087 2.683-8.139 5.947-10.61 11.314-3.27 7.254-1.162 16.103 4.942 20.454 5.014 3.554 14.17 4.642 20.638 2.466l3.415-1.16 4.869 4.642c11.772 11.315 26.96 18.35 46.726 21.687 7.92 1.378 10.9 1.523 24.271 1.16 8.793-.217 17.731-.87 21.074-1.45 28.849-5.44 58.716-19.294 78.191-36.266 19.33-16.827 31.756-35.178 37.134-54.616 2.325-8.559 2.325-25.169 0-33.22-4.797-16.537-16.569-30.463-32.992-39.239l-4.36-2.321 3.561-3.554c3.851-3.917 9.374-7.181 13.371-7.906 2.47-.435 2.688-.363 4.069 2.248 4.796 9.284 19.112 5.803 19.112-4.714 0-9.067-10.174-13.491-24.344-10.59-8.284 1.668-14.17 4.715-20.492 10.735l-5.378 5.077.509-3.191c.654-4.28 2.252-8.922 4.651-13.709 2.034-3.989 6.903-10.154 7.993-10.154.291 0 1.671 1.015 2.979 2.248 2.98 2.756 4.942 3.554 8.721 3.554 3.706 0 7.049-1.45 9.519-4.062 7.703-8.268 1.817-21.324-9.665-21.324-2.034 0-5.086 1.016-9.883 3.337-15.333 7.325-25.942 22.847-27.541 40.182l-.509 4.86-2.979-.653c-1.599-.363-9.447-.798-17.368-1.088-13.879-.435-14.315-.435-14.606-1.958-3.924-21.035-6.032-28.288-11.7-41.126-19.402-44.244-58.425-76.52-105.296-87.328-12.572-2.829-36.843-4.787-42.22-3.336zm22.164 22.194c25.361 1.814 54.501 15.232 75.357 34.743 17.586 16.537 30.812 38.804 36.625 61.724a435.5 435.5 0 001.89 7.254c.218.797-1.526-1.016-3.924-3.99-5.233-6.455-18.458-19.366-24.562-24.008-21.656-16.392-44.837-26.401-70.126-30.318-5.377-.798-11.118-1.596-12.644-1.668-2.761-.218-2.907-.363-4.215-4.207-4.287-12.403-6.394-22.34-7.557-35.033l-.436-5.657 1.671.363c.945.217 4.506.507 7.921.797zm14.897 67.382c21.074 4.207 37.57 11.388 54.719 23.863 6.177 4.497 23.4 20.817 23.4 22.195 0 1.088-12.427 8.558-20.347 12.258-29.504 13.781-64.53 15.739-95.705 5.367-16.496-5.512-29.285-12.766-43.746-24.733-8.212-6.746-17.44-16.61-16.35-17.335.435-.291 2.18-1.524 3.996-2.829 5.16-3.554 19.839-10.662 27.905-13.491 8.502-2.901 14.897-4.497 23.98-5.948 8.793-1.378 34.009-1.015 42.148.653zm151.877 62.45c8.793 1.233 14.607 3.046 23.254 7.253 23.617 11.46 32.992 33.872 24.49 58.678-1.963 5.73-2.035 5.875-5.451 7.108-6.104 2.249-12.571 2.974-19.257 2.031-5.45-.798-6.177-.798-7.412.363-2.107 1.958-1.889 5.149.509 6.673 1.671 1.088 3.633 1.305 12.353 1.305 5.741 0 10.319.218 10.247.508-.654 1.668-10.247 12.911-14.607 17.045-7.485 7.035-10.319 9.139-11.99 8.631-2.616-.87-13.516-7.833-19.475-12.475-14.171-10.953-25.87-27.417-30.448-42.504-4.215-13.998-4.142-33.219.145-50.047l1.163-4.859 5.159-.363c2.834-.29 6.322-.58 7.703-.653 4.287-.435 15.987.29 23.617 1.306zm-65.256 9.211c-2.107 8.777-2.398 30.826-.509 40.836 2.471 13.128 9.157 29.375 16.641 40.69 6.904 10.372 19.694 22.92 32.047 31.406l5.232 3.627-5.523 2.538c-3.052 1.378-8.792 3.627-12.862 4.932l-7.339 2.394-5.523-2.901c-24.925-12.984-42.947-32.059-49.923-52.876-5.378-16.102-5.523-36.121-.291-55.124.727-2.756 1.453-5.077 1.526-5.15 3.125-2.176 24.053-11.822 25.943-11.895.654-.072.799.435.581 1.523zm-58.135 45.55c.436 32.93 14.825 61.797 41.639 83.557l3.27 2.683-4.36-.362c-27.25-2.466-45.781-12.041-53.774-27.853-4.651-9.211-6.177-14.869-6.177-22.774 0-13.564 5.668-27.49 16.568-40.908 1.381-1.668 2.543-3.047 2.616-3.047 0 0 .146 3.917.218 8.704z"/><path d="M283.462 204.105c-13.415-1.191-16.45-20.105-4.166-25.987 1.553-.745 2.895-1.415 2.965-1.415.142 0-.423 1.117-1.2 2.383-1.694 2.904-1.765 4.467-.353 7.223 1.412 2.978 4.66 4.095 7.766 2.755 2.754-1.266 3.883-3.128 3.883-6.553l.071-2.457 2.047 2.531c1.271 1.564 2.26 3.798 2.542 5.883 1.271 8.935-5.154 16.382-13.555 15.637zm-64.39-34.971c-2.107 8.777-2.398 30.826-.509 40.836 2.471 13.128 9.157 29.375 16.641 40.69 6.904 10.372 19.694 22.92 32.047 31.406l5.232 3.627-5.523 2.538c-3.052 1.378-8.792 3.627-12.862 4.932l-7.339 2.394-5.523-2.901c-24.925-12.984-42.947-32.059-49.923-52.876-5.378-16.102-5.523-36.121-.291-55.124.727-2.756 1.453-5.077 1.526-5.15 3.125-2.176 24.053-11.822 25.943-11.895.654-.072.799.435.581 1.523zm-58.135 45.55c.436 32.93 14.825 61.797 41.639 83.557l3.27 2.683-4.36-.362c-27.25-2.466-45.781-12.041-53.774-27.853-4.651-9.211-6.177-14.869-6.177-22.774 0-13.564 5.668-27.49 16.568-40.908 1.381-1.668 2.543-3.047 2.616-3.047 0 0 .146 3.917.218 8.704zM132.451 97.473c21.074 4.207 37.57 11.388 54.719 23.863 6.177 4.497 23.4 20.817 23.4 22.195 0 1.088-12.427 8.558-20.347 12.258-29.504 13.781-64.53 15.739-95.705 5.367-16.496-5.512-29.285-12.766-43.746-24.733-8.212-6.746-17.44-16.61-16.35-17.335.435-.291 2.18-1.524 3.996-2.829 5.16-3.554 19.839-10.662 27.905-13.491 8.502-2.901 14.897-4.497 23.98-5.948 8.793-1.378 34.009-1.015 42.148.653zm-14.897-67.382c25.361 1.814 54.501 15.232 75.357 34.743 17.586 16.537 30.812 38.804 36.625 61.724a435.5 435.5 0 001.89 7.254c.218.797-1.526-1.016-3.924-3.99-5.233-6.455-18.458-19.366-24.562-24.008-21.656-16.392-44.837-26.401-70.126-30.318-5.377-.798-11.118-1.596-12.644-1.668-2.761-.218-2.907-.363-4.215-4.207-4.287-12.403-6.394-22.34-7.557-35.033l-.436-5.657 1.671.363c.945.217 4.506.507 7.921.797z"/><path fill-rule="evenodd" clip-rule="evenodd" d="M284.328 159.923c8.793 1.233 14.607 3.046 23.254 7.253 23.617 11.46 32.992 33.872 24.49 58.678-1.963 5.73-2.035 5.875-5.451 7.108-6.104 2.249-12.571 2.974-19.257 2.031-5.45-.798-6.177-.798-7.412.363-2.107 1.958-1.889 5.149.509 6.673 1.671 1.088 3.633 1.305 12.353 1.305 5.741 0 10.319.218 10.247.508-.654 1.668-10.247 12.911-14.607 17.045-7.485 7.035-10.319 9.139-11.99 8.631-2.616-.87-13.516-7.833-19.475-12.475-14.171-10.953-25.87-27.417-30.448-42.504-4.215-13.998-4.142-33.219.145-50.047l1.163-4.859 5.159-.363c2.834-.29 6.322-.58 7.703-.653 4.287-.435 15.987.29 23.617 1.306zm-.866 44.182c-13.415-1.191-16.45-20.105-4.166-25.987 1.553-.745 2.895-1.415 2.965-1.415.142 0-.423 1.117-1.2 2.383-1.694 2.904-1.765 4.467-.353 7.223 1.412 2.978 4.66 4.095 7.766 2.755 2.754-1.266 3.883-3.128 3.883-6.553l.071-2.457 2.047 2.531c1.271 1.564 2.26 3.798 2.542 5.883 1.271 8.935-5.154 16.382-13.555 15.637z"/></mask><path d="M95.39 7.897c-3.415.87-5.232 2.03-7.049 4.57-1.453 2.03-1.671 3.48-1.889 10.081-.509 13.563 1.744 30.753 5.74 44.534.8 2.757 1.6 5.585 1.818 6.238.29 1.016-.51 1.306-4.579 1.74-19.983 2.032-45.635 11.678-64.53 24.371-13.806 9.285-17.876 14.072-16.713 19.947 1.017 5.657 18.894 26.111 32.337 36.991 20.348 16.537 46.072 27.634 73.832 31.914 8.357 1.233 31.901 1.668 36.625.652l2.543-.58-4.36 4.642c-9.229 9.937-17.441 23.936-21.873 37.572-2.035 6.092-2.616 9.211-2.98 15.811l-.436 8.197-4.287 2.321c-5.087 2.683-8.139 5.947-10.61 11.314-3.27 7.254-1.162 16.103 4.942 20.454 5.014 3.554 14.17 4.642 20.638 2.466l3.415-1.16 4.869 4.642c11.772 11.315 26.96 18.35 46.726 21.687 7.92 1.378 10.9 1.523 24.271 1.16 8.793-.217 17.731-.87 21.074-1.45 28.849-5.44 58.716-19.294 78.191-36.266 19.33-16.827 31.756-35.178 37.134-54.616 2.325-8.559 2.325-25.169 0-33.22-4.797-16.537-16.569-30.463-32.992-39.239l-4.36-2.321 3.561-3.554c3.851-3.917 9.374-7.181 13.371-7.906 2.47-.435 2.688-.363 4.069 2.248 4.796 9.284 19.112 5.803 19.112-4.714 0-9.067-10.174-13.491-24.344-10.59-8.284 1.668-14.17 4.715-20.492 10.735l-5.378 5.077.509-3.191c.654-4.28 2.252-8.922 4.651-13.709 2.034-3.989 6.903-10.154 7.993-10.154.291 0 1.671 1.015 2.979 2.248 2.98 2.756 4.942 3.554 8.721 3.554 3.706 0 7.049-1.45 9.519-4.062 7.703-8.268 1.817-21.324-9.665-21.324-2.034 0-5.086 1.016-9.883 3.337-15.333 7.325-25.942 22.847-27.541 40.182l-.509 4.86-2.979-.653c-1.599-.363-9.447-.798-17.368-1.088-13.879-.435-14.315-.435-14.606-1.958-3.924-21.035-6.032-28.288-11.7-41.126-19.402-44.244-58.425-76.52-105.296-87.328-12.572-2.829-36.843-4.787-42.22-3.336zm22.164 22.194c25.361 1.814 54.501 15.232 75.357 34.743 17.586 16.537 30.812 38.804 36.625 61.724a435.5 435.5 0 001.89 7.254c.218.797-1.526-1.016-3.924-3.99-5.233-6.455-18.458-19.366-24.562-24.008-21.656-16.392-44.837-26.401-70.126-30.318-5.377-.798-11.118-1.596-12.644-1.668-2.761-.218-2.907-.363-4.215-4.207-4.287-12.403-6.394-22.34-7.557-35.033l-.436-5.657 1.671.363c.945.217 4.506.507 7.921.797zm14.897 67.382c21.074 4.207 37.57 11.388 54.719 23.863 6.177 4.497 23.4 20.817 23.4 22.195 0 1.088-12.427 8.558-20.347 12.258-29.504 13.781-64.53 15.739-95.705 5.367-16.496-5.512-29.285-12.766-43.746-24.733-8.212-6.746-17.44-16.61-16.35-17.335.435-.291 2.18-1.524 3.996-2.829 5.16-3.554 19.839-10.662 27.905-13.491 8.502-2.901 14.897-4.497 23.98-5.948 8.793-1.378 34.009-1.015 42.148.653zm151.877 62.45c8.793 1.233 14.607 3.046 23.254 7.253 23.617 11.46 32.992 33.872 24.49 58.678-1.963 5.73-2.035 5.875-5.451 7.108-6.104 2.249-12.571 2.974-19.257 2.031-5.45-.798-6.177-.798-7.412.363-2.107 1.958-1.889 5.149.509 6.673 1.671 1.088 3.633 1.305 12.353 1.305 5.741 0 10.319.218 10.247.508-.654 1.668-10.247 12.911-14.607 17.045-7.485 7.035-10.319 9.139-11.99 8.631-2.616-.87-13.516-7.833-19.475-12.475-14.171-10.953-25.87-27.417-30.448-42.504-4.215-13.998-4.142-33.219.145-50.047l1.163-4.859 5.159-.363c2.834-.29 6.322-.58 7.703-.653 4.287-.435 15.987.29 23.617 1.306zm-65.256 9.211c-2.107 8.777-2.398 30.826-.509 40.836 2.471 13.128 9.157 29.375 16.641 40.69 6.904 10.372 19.694 22.92 32.047 31.406l5.232 3.627-5.523 2.538c-3.052 1.378-8.792 3.627-12.862 4.932l-7.339 2.394-5.523-2.901c-24.925-12.984-42.947-32.059-49.923-52.876-5.378-16.102-5.523-36.121-.291-55.124.727-2.756 1.453-5.077 1.526-5.15 3.125-2.176 24.053-11.822 25.943-11.895.654-.072.799.435.581 1.523zm-58.135 45.55c.436 32.93 14.825 61.797 41.639 83.557l3.27 2.683-4.36-.362c-27.25-2.466-45.781-12.041-53.774-27.853-4.651-9.211-6.177-14.869-6.177-22.774 0-13.564 5.668-27.49 16.568-40.908 1.381-1.668 2.543-3.047 2.616-3.047 0 0 .146 3.917.218 8.704z" fill="#000"/><path d="M283.462 204.105c-13.415-1.191-16.45-20.105-4.166-25.987 1.553-.745 2.895-1.415 2.965-1.415.142 0-.423 1.117-1.2 2.383-1.694 2.904-1.765 4.467-.353 7.223 1.412 2.978 4.66 4.095 7.766 2.755 2.754-1.266 3.883-3.128 3.883-6.553l.071-2.457 2.047 2.531c1.271 1.564 2.26 3.798 2.542 5.883 1.271 8.935-5.154 16.382-13.555 15.637z" fill="#000"/><path d="M219.072 169.134c-2.107 8.777-2.398 30.826-.509 40.836 2.471 13.128 9.157 29.375 16.641 40.69 6.904 10.372 19.694 22.92 32.047 31.406l5.232 3.627-5.523 2.538c-3.052 1.378-8.792 3.627-12.862 4.932l-7.339 2.394-5.523-2.901c-24.925-12.984-42.947-32.059-49.923-52.876-5.378-16.102-5.523-36.121-.291-55.124.727-2.756 1.453-5.077 1.526-5.15 3.125-2.176 24.053-11.822 25.943-11.895.654-.072.799.435.581 1.523zm-58.135 45.55c.436 32.93 14.825 61.797 41.639 83.557l3.27 2.683-4.36-.362c-27.25-2.466-45.781-12.041-53.774-27.853-4.651-9.211-6.177-14.869-6.177-22.774 0-13.564 5.668-27.49 16.568-40.908 1.381-1.668 2.543-3.047 2.616-3.047 0 0 .146 3.917.218 8.704z" fill="#FCC700"/><path d="M132.451 97.473c21.074 4.207 37.57 11.388 54.719 23.863 6.177 4.497 23.4 20.817 23.4 22.195 0 1.088-12.427 8.558-20.347 12.258-29.504 13.781-64.53 15.739-95.705 5.367-16.496-5.512-29.285-12.766-43.746-24.733-8.212-6.746-17.44-16.61-16.35-17.335.435-.291 2.18-1.524 3.996-2.829 5.16-3.554 19.839-10.662 27.905-13.491 8.502-2.901 14.897-4.497 23.98-5.948 8.793-1.378 34.009-1.015 42.148.653zm-14.897-67.382c25.361 1.814 54.501 15.232 75.357 34.743 17.586 16.537 30.812 38.804 36.625 61.724a435.5 435.5 0 001.89 7.254c.218.797-1.526-1.016-3.924-3.99-5.233-6.455-18.458-19.366-24.562-24.008-21.656-16.392-44.837-26.401-70.126-30.318-5.377-.798-11.118-1.596-12.644-1.668-2.761-.218-2.907-.363-4.215-4.207-4.287-12.403-6.394-22.34-7.557-35.033l-.436-5.657 1.671.363c.945.217 4.506.507 7.921.797z" fill="#fff"/><path fill-rule="evenodd" clip-rule="evenodd" d="M284.328 159.923c8.793 1.233 14.607 3.046 23.254 7.253 23.617 11.46 32.992 33.872 24.49 58.678-1.963 5.73-2.035 5.875-5.451 7.108-6.104 2.249-12.571 2.974-19.257 2.031-5.45-.798-6.177-.798-7.412.363-2.107 1.958-1.889 5.149.509 6.673 1.671 1.088 3.633 1.305 12.353 1.305 5.741 0 10.319.218 10.247.508-.654 1.668-10.247 12.911-14.607 17.045-7.485 7.035-10.319 9.139-11.99 8.631-2.616-.87-13.516-7.833-19.475-12.475-14.171-10.953-25.87-27.417-30.448-42.504-4.215-13.998-4.142-33.219.145-50.047l1.163-4.859 5.159-.363c2.834-.29 6.322-.58 7.703-.653 4.287-.435 15.987.29 23.617 1.306zm-.866 44.182c-13.415-1.191-16.45-20.105-4.166-25.987 1.553-.745 2.895-1.415 2.965-1.415.142 0-.423 1.117-1.2 2.383-1.694 2.904-1.765 4.467-.353 7.223 1.412 2.978 4.66 4.095 7.766 2.755 2.754-1.266 3.883-3.128 3.883-6.553l.071-2.457 2.047 2.531c1.271 1.564 2.26 3.798 2.542 5.883 1.271 8.935-5.154 16.382-13.555 15.637z" fill="#fff"/><path d="M95.39 7.897c-3.415.87-5.232 2.03-7.049 4.57-1.453 2.03-1.671 3.48-1.889 10.081-.509 13.563 1.744 30.753 5.74 44.534.8 2.757 1.6 5.585 1.818 6.238.29 1.016-.51 1.306-4.579 1.74-19.983 2.032-45.635 11.678-64.53 24.371-13.806 9.285-17.876 14.072-16.713 19.947 1.017 5.657 18.894 26.111 32.337 36.991 20.348 16.537 46.072 27.634 73.832 31.914 8.357 1.233 31.901 1.668 36.625.652l2.543-.58-4.36 4.642c-9.229 9.937-17.441 23.936-21.873 37.572-2.035 6.092-2.616 9.211-2.98 15.811l-.436 8.197-4.287 2.321c-5.087 2.683-8.139 5.947-10.61 11.314-3.27 7.254-1.162 16.103 4.942 20.454 5.014 3.554 14.17 4.642 20.638 2.466l3.415-1.16 4.869 4.642c11.772 11.315 26.96 18.35 46.726 21.687 7.92 1.378 10.9 1.523 24.271 1.16 8.793-.217 17.731-.87 21.074-1.45 28.849-5.44 58.716-19.294 78.191-36.266 19.33-16.827 31.756-35.178 37.134-54.616 2.325-8.559 2.325-25.169 0-33.22-4.797-16.537-16.569-30.463-32.992-39.239l-4.36-2.321 3.561-3.554c3.851-3.917 9.374-7.181 13.371-7.906 2.47-.435 2.688-.363 4.069 2.248 4.796 9.284 19.112 5.803 19.112-4.714 0-9.067-10.174-13.491-24.344-10.59-8.284 1.668-14.17 4.715-20.492 10.735l-5.378 5.077.509-3.191c.654-4.28 2.252-8.922 4.651-13.709 2.034-3.989 6.903-10.154 7.993-10.154.291 0 1.671 1.015 2.979 2.248 2.98 2.756 4.942 3.554 8.721 3.554 3.706 0 7.049-1.45 9.519-4.062 7.703-8.268 1.817-21.324-9.665-21.324-2.034 0-5.086 1.016-9.883 3.337-15.333 7.325-25.942 22.847-27.541 40.182l-.509 4.86-2.979-.653c-1.599-.363-9.447-.798-17.368-1.088-13.879-.435-14.315-.435-14.606-1.958-3.924-21.035-6.032-28.288-11.7-41.126-19.402-44.244-58.425-76.52-105.296-87.328-12.572-2.829-36.843-4.787-42.22-3.336zm22.164 22.194c25.361 1.814 54.501 15.232 75.357 34.743 17.586 16.537 30.812 38.804 36.625 61.724a435.5 435.5 0 001.89 7.254c.218.797-1.526-1.016-3.924-3.99-5.233-6.455-18.458-19.366-24.562-24.008-21.656-16.392-44.837-26.401-70.126-30.318-5.377-.798-11.118-1.596-12.644-1.668-2.761-.218-2.907-.363-4.215-4.207-4.287-12.403-6.394-22.34-7.557-35.033l-.436-5.657 1.671.363c.945.217 4.506.507 7.921.797zm14.897 67.382c21.074 4.207 37.57 11.388 54.719 23.863 6.177 4.497 23.4 20.817 23.4 22.195 0 1.088-12.427 8.558-20.347 12.258-29.504 13.781-64.53 15.739-95.705 5.367-16.496-5.512-29.285-12.766-43.746-24.733-8.212-6.746-17.44-16.61-16.35-17.335.435-.291 2.18-1.524 3.996-2.829 5.16-3.554 19.839-10.662 27.905-13.491 8.502-2.901 14.897-4.497 23.98-5.948 8.793-1.378 34.009-1.015 42.148.653zm151.877 62.45c8.793 1.233 14.607 3.046 23.254 7.253 23.617 11.46 32.992 33.872 24.49 58.678-1.963 5.73-2.035 5.875-5.451 7.108-6.104 2.249-12.571 2.974-19.257 2.031-5.45-.798-6.177-.798-7.412.363-2.107 1.958-1.889 5.149.509 6.673 1.671 1.088 3.633 1.305 12.353 1.305 5.741 0 10.319.218 10.247.508-.654 1.668-10.247 12.911-14.607 17.045-7.485 7.035-10.319 9.139-11.99 8.631-2.616-.87-13.516-7.833-19.475-12.475-14.171-10.953-25.87-27.417-30.448-42.504-4.215-13.998-4.142-33.219.145-50.047l1.163-4.859 5.159-.363c2.834-.29 6.322-.58 7.703-.653 4.287-.435 15.987.29 23.617 1.306zm-65.256 9.211c-2.107 8.777-2.398 30.826-.509 40.836 2.471 13.128 9.157 29.375 16.641 40.69 6.904 10.372 19.694 22.92 32.047 31.406l5.232 3.627-5.523 2.538c-3.052 1.378-8.792 3.627-12.862 4.932l-7.339 2.394-5.523-2.901c-24.925-12.984-42.947-32.059-49.923-52.876-5.378-16.102-5.523-36.121-.291-55.124.727-2.756 1.453-5.077 1.526-5.15 3.125-2.176 24.053-11.822 25.943-11.895.654-.072.799.435.581 1.523zm-58.135 45.55c.436 32.93 14.825 61.797 41.639 83.557l3.27 2.683-4.36-.362c-27.25-2.466-45.781-12.041-53.774-27.853-4.651-9.211-6.177-14.869-6.177-22.774 0-13.564 5.668-27.49 16.568-40.908 1.381-1.668 2.543-3.047 2.616-3.047 0 0 .146 3.917.218 8.704z" stroke="#fff" stroke-width="14" mask="url(#a)"/><path d="M283.462 204.105c-13.415-1.191-16.45-20.105-4.166-25.987 1.553-.745 2.895-1.415 2.965-1.415.142 0-.423 1.117-1.2 2.383-1.694 2.904-1.765 4.467-.353 7.223 1.412 2.978 4.66 4.095 7.766 2.755 2.754-1.266 3.883-3.128 3.883-6.553l.071-2.457 2.047 2.531c1.271 1.564 2.26 3.798 2.542 5.883 1.271 8.935-5.154 16.382-13.555 15.637zm-64.39-34.971c-2.107 8.777-2.398 30.826-.509 40.836 2.471 13.128 9.157 29.375 16.641 40.69 6.904 10.372 19.694 22.92 32.047 31.406l5.232 3.627-5.523 2.538c-3.052 1.378-8.792 3.627-12.862 4.932l-7.339 2.394-5.523-2.901c-24.925-12.984-42.947-32.059-49.923-52.876-5.378-16.102-5.523-36.121-.291-55.124.727-2.756 1.453-5.077 1.526-5.15 3.125-2.176 24.053-11.822 25.943-11.895.654-.072.799.435.581 1.523zm-58.135 45.55c.436 32.93 14.825 61.797 41.639 83.557l3.27 2.683-4.36-.362c-27.25-2.466-45.781-12.041-53.774-27.853-4.651-9.211-6.177-14.869-6.177-22.774 0-13.564 5.668-27.49 16.568-40.908 1.381-1.668 2.543-3.047 2.616-3.047 0 0 .146 3.917.218 8.704zM132.451 97.473c21.074 4.207 37.57 11.388 54.719 23.863 6.177 4.497 23.4 20.817 23.4 22.195 0 1.088-12.427 8.558-20.347 12.258-29.504 13.781-64.53 15.739-95.705 5.367-16.496-5.512-29.285-12.766-43.746-24.733-8.212-6.746-17.44-16.61-16.35-17.335.435-.291 2.18-1.524 3.996-2.829 5.16-3.554 19.839-10.662 27.905-13.491 8.502-2.901 14.897-4.497 23.98-5.948 8.793-1.378 34.009-1.015 42.148.653zm-14.897-67.382c25.361 1.814 54.501 15.232 75.357 34.743 17.586 16.537 30.812 38.804 36.625 61.724a435.5 435.5 0 001.89 7.254c.218.797-1.526-1.016-3.924-3.99-5.233-6.455-18.458-19.366-24.562-24.008-21.656-16.392-44.837-26.401-70.126-30.318-5.377-.798-11.118-1.596-12.644-1.668-2.761-.218-2.907-.363-4.215-4.207-4.287-12.403-6.394-22.34-7.557-35.033l-.436-5.657 1.671.363c.945.217 4.506.507 7.921.797z" stroke="#fff" stroke-width="14" mask="url(#a)"/><path clip-rule="evenodd" d="M284.328 159.923c8.793 1.233 14.607 3.046 23.254 7.253 23.617 11.46 32.992 33.872 24.49 58.678-1.963 5.73-2.035 5.875-5.451 7.108-6.104 2.249-12.571 2.974-19.257 2.031-5.45-.798-6.177-.798-7.412.363-2.107 1.958-1.889 5.149.509 6.673 1.671 1.088 3.633 1.305 12.353 1.305 5.741 0 10.319.218 10.247.508-.654 1.668-10.247 12.911-14.607 17.045-7.485 7.035-10.319 9.139-11.99 8.631-2.616-.87-13.516-7.833-19.475-12.475-14.171-10.953-25.87-27.417-30.448-42.504-4.215-13.998-4.142-33.219.145-50.047l1.163-4.859 5.159-.363c2.834-.29 6.322-.58 7.703-.653 4.287-.435 15.987.29 23.617 1.306zm-.866 44.182c-13.415-1.191-16.45-20.105-4.166-25.987 1.553-.745 2.895-1.415 2.965-1.415.142 0-.423 1.117-1.2 2.383-1.694 2.904-1.765 4.467-.353 7.223 1.412 2.978 4.66 4.095 7.766 2.755 2.754-1.266 3.883-3.128 3.883-6.553l.071-2.457 2.047 2.531c1.271 1.564 2.26 3.798 2.542 5.883 1.271 8.935-5.154 16.382-13.555 15.637z" stroke="#fff" stroke-width="14" mask="url(#a)"/></svg>